<?xml version="1.0" encoding="utf-8"?>
<!-- Generator: Adobe Illustrator 27.3.1, SVG Export Plug-In . SVG Version: 6.00 Build 0)  -->
<svg version="1.1" id="Calque_1" xmlns="http://www.w3.org/2000/svg" xmlns:xlink="http://www.w3.org/1999/xlink" x="0px" y="0px"
	 viewBox="0 0 345.3 346" style="enable-background:new 0 0 345.3 346;" xml:space="preserve">
<style type="text/css">
	.st0{fill:#FFFFFF;}
	.st1{fill:#516E84;}
</style>
<circle class="st0" cx="174.4" cy="173.4" r="166.6"/>
<g>
	<path class="st1" d="M345.3,173.3c-0.4,95.3-78,172.9-172.8,172.7C77.4,345.8-0.3,267.7,0,172.7C0.3,77.5,78-0.2,172.8,0
		C268,0.2,345.8,78.3,345.3,173.3z M172.8,20.7c-84.2-0.1-152.2,68-152.2,152.2c0,84.1,67.8,152.3,151.7,152.4
		c84.2,0.2,152.3-67.8,152.4-152.1C324.8,89,256.9,20.7,172.8,20.7z"/>
	<path class="st1" d="M174.3,312.2c-47.8-1.3-84.9-20-113.2-56.5c-2-2.6-2-4.6-0.4-7.3c4.9-8.2,11.9-14.1,19.7-19.1
		c15.1-9.7,30.7-18.6,47.6-25c2.7-1,5.3-2.3,7.7-3.8c7.1-4.3,9.4-12,5.7-19.5c-1.6-3.3-3.9-6.4-6.2-9.3
		c-12-15.5-20.7-32.7-23.5-52.3c-3-21.1-1.3-41.5,12-59.2c10.2-13.5,24.1-20.3,40.8-22.3c11.9-1.4,23.5-0.5,34.5,4
		c20.1,8.2,31.2,23.9,35,44.8c5.3,29.1-2.2,55.3-19.2,79.1c-4.1,5.7-8,11.8-10.5,18.3c-3,7.7-0.4,13.7,6.7,17.8
		c5.5,3.1,11.4,5.5,17.3,7.9c15.1,6.2,30.3,12.5,42.9,23.1c5.4,4.5,9.5,10.5,14,15.9c1.6,1.9,1.4,3.8-0.2,6
		c-23.1,30.6-53.2,49.5-91.1,55.5C186.7,311.4,179.6,311.7,174.3,312.2z"/>
</g>
</svg>
