<?xml version="1.0" encoding="utf-8"?>
<!-- Generator: Adobe Illustrator 27.3.1, SVG Export Plug-In . SVG Version: 6.00 Build 0)  -->
<svg version="1.1" id="Calque_1" xmlns="http://www.w3.org/2000/svg" xmlns:xlink="http://www.w3.org/1999/xlink" x="0px" y="0px"
	 viewBox="0 0 371.5 371.2" style="enable-background:new 0 0 371.5 371.2;" xml:space="preserve">
<style type="text/css">
	.st0{fill:#FF4C29;}
</style>
<g>
	<path class="st0" d="M293.4,113.2c0.3,16.4,0.6,32.4-3.9,48.3c-8.9,0-17.8,0-26.8,0c-1.7,0-3.5-0.1-5.2,0c-3.5,0.2-5.9,2.7-5.9,6
		c0,3.4,2.5,5.9,6.4,5.9c8.6,0.1,17.2-0.1,25.8,0.1c3.5,0.1,7.1,0.1,10.4,1c9.8,2.6,17,11.8,17.2,22c0.2,8.2,0.1,16.5,0,24.7
		c-0.1,6.8-5.2,12-11.7,12.1c-6.4,0.1-11.9-5.1-12.1-11.8c-0.2-7.8-0.1-15.7-0.1-24.1c-1.7,0-3.3,0-4.8,0c-8,0-16,0-24,0
		c-4.5,0-7.1,2.3-7.1,5.9c0,3.6,2.6,6,7,6c2.1,0,4.2,0,7.4,0c-18.3,22.3-40.7,36.6-68.3,43.9c0-6.5,0-12.5,0-18.4
		c0-4.7-2.3-7.5-6-7.4c-3.7,0-6,2.7-6,7.5c0,9.5,0.1,19,0,28.4c-0.2,25.8-11.3,45.4-33.6,58.7c-0.9,0.6-2.2,1.7-2.2,2.5
		c-0.2,7.5-0.1,14.9-0.1,22.5c9.7,0.8,17,4.9,21.4,13.4c3.4,6.6,0.9,10.7-6.5,10.8c-8.7,0-17.5,0-26.2,0
		c-10.9-0.1-18.6-7.7-18.6-18.6c-0.1-11.5,0-23,0-34.4c0-8.5,2.5-16.2,7.6-23c3.4-4.5,6.7-8.9,10.3-13.7c-7-3.1-13.8-5.8-20.5-8.9
		c-11.5-5.3-18.8-14.2-20.9-26.8c-1.8-10.9,1.3-20.5,8.5-28.8c0.6-0.8,1.4-1.4,2.1-2.2c3-3.2,3.3-6.7,0.7-9.2
		c-2.6-2.6-5.9-2.4-9.2,0.8c-7.3,6.9-12,15.3-13.7,25.2c-3,17.8,2.4,32.7,16,44.6c2,1.7,2.3,3.1,1.5,5.4
		c-15.5,45.9-46.5,75.4-93,88.7c-3.2,0.9-6.3,1-8.3-2.3c-1.9-3.1-0.6-5.7,1.5-8.1c12.4-14.7,22.7-30.6,28.7-49.1
		c3.3-10.3,5-20.8,4.8-31.6c-0.2-17.6,0-35.1,3.7-52.5c5.1-24.5,20.7-56.3,35.9-71.8c3.7,6.7,5.9,13.7,7.5,21
		c0.3,1.5,0.5,2.9,0.8,4.4c0.8,3.7,3.6,5.9,6.9,5.3c3.5-0.6,5.5-3.7,4.9-7.6c-1.7-10.4-4.8-20.4-9.9-29.6c-1.3-2.4-1.3-3.9,0.8-5.7
		c4.9-4,9.6-8.3,14.5-12.7c6.7,10.1,10.6,20.6,12.7,31.9c1,5.4,6.5,7.8,9.8,4.2c1.4-1.5,2.1-4.6,1.8-6.7c-2-12.8-6.8-24.7-14.3-36.2
		c6.8-3.8,13.5-7.5,20.4-11.4c5.2,7.9,8.4,16.2,10.7,24.9c0.6,2.3,1,4.6,1.5,6.9c0.9,4.3,3.6,6.6,7.1,6c3.6-0.7,5.4-3.9,4.7-8.1
		c-2-12-6.1-23.3-12.6-34.6c7.8-2.1,15.3-4.3,22.9-6.1c0.8-0.2,2.3,1,2.9,2c5.8,8.9,9.2,18.7,11.1,29.1c0.7,4.1,3.5,6.3,6.9,5.8
		c3.6-0.5,5.5-3.7,4.9-7.9c0-0.1,0-0.2-0.1-0.4c-1.7-10-4.9-19.6-9.9-28.5c-0.4-0.7-0.8-1.5-1.3-2.6c3-0.5,5.7-0.7,8.3-1.3
		c10.9-2.6,18.5-9.2,21.8-19.9c4-12.7,7.5-25.6,11.3-38.4c7.1-24.1,27.9-39.7,52.4-38.6c6.2,0.3,12.6,1.9,18.4,4.2
		c12.1,4.7,23.8,10.2,35.7,15.4c8.1,3.5,16.5,5.7,25.3,5.8c14,0.1,19.6,10,17.7,23.2c-0.5,3.7-3.6,4.8-7,4.8c-7.7,0-15.5,0-23.2,0
		c-7.2,0-14.5,0-21.7,0c-2.9,0-5.5,0.4-7,3.3c-1.6,3.1-0.2,5.5,1.6,7.9c2.2,2.9,4.5,5.7,6.5,8.7c2.1,3.2,4.8,4.3,8.5,4.2
		c10.9-0.1,21.7-0.1,32.6,0c7.1,0,9.2,2.7,7.7,9.6c-2,9.4-7.7,14.3-17.3,14.3c-26.5,0.1-52.9,0-79.4,0.1c-2.3,0-3.2-0.8-3.9-2.9
		c-3.3-10.2-6.7-20.3-10.2-30.5c-0.4-1.1-0.6-2.2-1.1-3.2c-1.6-2.9-4-4.1-7.2-3.2c-3,0.9-4.7,3.9-3.9,7.1c0.6,2.5,1.5,5,2.4,7.5
		c3.5,10.5,7.1,21,10.5,31.6c1.3,3.9,3.7,5.6,7.7,5.6c7.5-0.1,15,0,22.5,0C290.6,113.2,291.9,113.2,293.4,113.2z M293.5,35.3
		c0-3.2-2.8-5.9-6-5.9c-3.3,0-5.9,2.8-5.9,6c0,3.3,2.7,5.9,6,5.8C290.9,41.2,293.5,38.6,293.5,35.3z"/>
	<path class="st0" d="M251.5,241.1c0.5,12.2,0.3,24.1-4.3,35.5c-5.8,14.4-15.3,25.5-28.9,33.1c-2,1.1-2.8,2.4-2.7,4.7
		c0.2,6.8,0.1,13.7,0.1,20.6c8.8,0.7,15.8,4.2,20.4,11.7c0.8,1.4,1.6,2.8,2.1,4.4c1.4,4.3-1.1,8-5.6,8c-10.1,0.1-20.2,0.3-30.3-0.1
		c-8.9-0.3-16.3-7.9-16.4-16.9c-0.2-11.5-0.1-22.9,0-34.4c0-1.2,0.5-2.4,1.1-3.5c6.6-11.2,10-23.2,10.8-36.1
		c0.1-1.1,1.2-2.9,2.1-3.1c18.5-4.5,35.4-12.5,50.7-23.8C250.6,241.1,250.9,241.2,251.5,241.1z"/>
	<path class="st0" d="M323.5,155.5c-7,0-13.4,0-19.8,0c0.8-8,1.5-15.8,2.2-23.3c7.5,0,15.2-0.9,22.6,0.2c11.1,1.6,18.8,11.4,19,22.7
		c0.1,8.1,0.1,16.2,0,24.3c-0.1,7-5.4,12.2-12.1,12.1c-6.6-0.1-11.8-5.3-11.8-12.3C323.4,171.5,323.5,163.8,323.5,155.5z"/>
</g>
</svg>
