<?xml version="1.0" encoding="utf-8"?>
<!-- Generator: Adobe Illustrator 27.3.1, SVG Export Plug-In . SVG Version: 6.00 Build 0)  -->
<svg version="1.1" id="Calque_1" xmlns="http://www.w3.org/2000/svg" xmlns:xlink="http://www.w3.org/1999/xlink" x="0px" y="0px"
	 viewBox="0 0 329.6 329.7" style="enable-background:new 0 0 329.6 329.7;" xml:space="preserve">
<style type="text/css">
	.st0{fill:#506D84;}
</style>
<g>
	<path class="st0" d="M164.8,329.7C74,329.8,0.2,256.1,0,165.1C-0.2,74.1,73.7,0.1,164.7,0c90.8-0.1,164.7,73.7,164.8,164.6
		C329.8,255.7,256,329.6,164.8,329.7z M306.6,164.8C306.5,86.3,243,23,164.6,23.1C86.3,23.2,23.1,86.5,23,164.8
		c-0.1,78.3,63.5,142,141.8,142C243.1,306.8,306.7,243,306.6,164.8z"/>
	<path class="st0" d="M164.6,120.9c9.5,0.1,18,3.2,24.6,10.1c15.2,15.9,30.1,31.9,45.1,48c4.6,4.9,4.3,12.2-0.4,16.4
		c-4.7,4.3-11.7,4-16.4-0.9c-14.1-14.9-28-29.8-42-44.7c-7.5-8-13.9-8-21.4,0.1c-13.9,14.8-27.8,29.7-41.8,44.5
		c-6.5,6.8-16.8,4.8-19.6-3.6c-1.4-4.1-0.8-8,2.2-11.2c15.4-16.5,30.8-33,46.4-49.3C147.2,124,155.9,120.9,164.6,120.9z"/>
</g>
</svg>
