<?xml version="1.0" encoding="UTF-8"?>
<svg id="Calque_2" data-name="Calque 2" xmlns="http://www.w3.org/2000/svg" viewBox="0 0 936.73 207.85">
  <defs>
    <style>
      .cls-1 {
        fill: #889eaf;
      }

      .cls-2 {
        fill: #506d84;
      }
    </style>
  </defs>
  <g id="logo">
    <g>
      <path class="cls-2" d="m565.5,167.83c-8.38-3.65-16.15-8.33-22.19-15.18-3.39-3.85-5.67-8.67-8.45-13.05-3.92-4.55-4.48-10.2-5.14-15.81-.19-1.29-.37-2.59-.56-3.88-1.94-2.7-1.93-8.15.03-10.84.18-1.02.35-2.04.53-3.06-.38-2.83-1.03-5.74,2.09-7.61,1.13-7.21,4.74-13.21,9.17-18.81.94-1.54,1.58-3.42,2.87-4.57,3.49-3.09,7.26-5.88,10.92-8.78,1.65-1.04,3.24-2.17,4.95-3.1,5.4-2.94,5.95-6.56,1.55-11.32-1.46-1.58-3.11-2.97-4.67-4.45-.82-.79-1.64-1.59-2.46-2.38-.27-.3-.55-.59-.82-.89-2.21-1.72-4.5-3.34-6.6-5.18-3.2-2.82-6.42-4.44-10.44-1.5-.46.33-1.31.13-1.98.18-2.44,1.44-4.88,2.88-7.32,4.31-.24.24-.48.49-.72.73-7.16,11.22-14.32,22.45-21.48,33.67-1.17,4.09-2.34,8.19-3.51,12.28-.09.49-.19.99-.28,1.48-.08.61-.17,1.22-.25,1.84-.07.52-.15,1.05-.22,1.57-.49,3.31-.99,6.62-1.48,9.93,0,7.66-.02,15.32-.03,22.97l1.36,10.79c1.33,4.93,2.69,9.86,3.97,14.8.26,1.02.26,2.11.38,3.17.48.25,1.21.37,1.4.75,2.29,4.68,4.5,9.4,6.74,14.11,4.33,4.59,8.49,9.34,13.04,13.7,2.71,2.6,6.01,4.58,9.04,6.83.19.19.27.43.24.7,4.41,2.02,8.16.51,12.15-1.68,7.53-4.14,13.24-10.33,19.36-16.07,2.52-2.36,2.08-4.23-1.2-5.65Zm-22.39,8.02c-1.87,1.08-3.06.88-3.29-1.51-5.34-7.07-11-13.93-15.95-21.26-6.92-10.25-10.81-21.97-12.25-34.03-.9-7.54.42-15.62,2.17-23.12,1.56-6.7,5.09-12.94,7.75-19.38,1.2-2.04,2.41-4.09,3.61-6.13l3.61-5.48c.51-.58,1.03-1.15,1.54-1.73,2.92-3.19,5.79-6.43,8.79-9.53.98-1.02,2.33-1.68,3.51-2.51.47.39.93.78,1.4,1.18-.99,1.75-1.67,3.8-3.03,5.19-7.71,7.83-14.58,16.32-18.84,26.47-2.61,6.2-4.07,12.89-6.04,19.35-.13.86-.26,1.72-.39,2.58.02,4.87.03,9.74.05,14.61.1.59.21,1.18.31,1.77.07.81.14,1.61.2,2.42.18.38.37.76.55,1.15,2.62,7.17,4.2,14.97,8.1,21.36,5.4,8.84,12.55,16.61,18.96,24.83,2.43,1.8.96,2.77-.76,3.77Z"/>
      <path class="cls-2" d="m3.34,175.57c-.24-.92-.91-1.78-2.24-2.54-.08,2.49-.16,4.98-.25,7.47.46,0,.91.02,1.37.03-.18.8-.36,1.59-.54,2.39.17.99.35,1.98.52,2.97.29,3.28.58,6.56.88,9.84.79.99,1.58,1.99,2.38,2.98,1.01-.04,2.03-.08,3.04-.12,3.62-2.73,6.82-1.6,9.85,1.08,3.18.26,6.37.52,9.55.78,4.97-.22,9.94-.44,14.91-.67,1.87-.58,3.75-1.16,5.62-1.74,2.44-.79,4.87-1.59,7.31-2.38,7.83-4.05,12.02-10.8,14.14-19.06,1-3.88,1.97-7.77,2.96-11.65.23-6.88.45-13.76.68-20.65.23-1.76.45-3.51.68-5.27.12-3.55.25-7.09.37-10.64-.18-4.64-.36-9.29-.54-13.93-.56-1.12-1.59-2.23-1.6-3.35-.08-8.46-.05-16.93.18-25.39.03-1.18,1.35-2.33,2.07-3.49.31-2.13.63-4.25.94-6.38.21-12.11.42-24.23.62-36.34-.02-4.32-.04-8.64-.07-12.96-.06-3.24-.13-6.49-.19-9.73-.39-1.04-.79-2.07-1.18-3.11l-3.55-1.89c-5.21-.9-10.42-1.8-15.64-2.7-7.07-.93-14.18-1.61-21.18-2.89-3.55-.65-4.85-.07-4.81,3.71.1,10.1-.08,20.2-.15,30.31.11.69.22,1.37.33,2.06l.78,4.31c.44,6.77.89,13.53,1.34,20.3.17,2.2.35,4.4.52,6.6,0,16.06-.01,32.13-.02,48.19.31.31.62.61.94.92,4.43,3.97,2.14,8.57,1.21,13.03,0,1.07,0,2.13,0,3.2-.02,1.08-.03,2.16-.05,3.23,0,1.06-.01,2.13-.02,3.19,1.74,2.06,1.17,3.02-1.44,3.01-.37.73-.74,1.47-1.11,2.2-.37.82-.75,1.64-1.12,2.46-.52.67-1.04,1.35-1.56,2.02-.89,4.21-4.14,5.34-7.71,5.23-6.08-.19-12.15-.85-18.23-1.31-.31.19-.65.25-1,.19-.61.39-1.23.78-1.84,1.18-.16.71-.31,1.42-.47,2.12.37,3.55.73,7.1,1.1,10.65,1.34.76,2,1.62,2.24,2.54Zm23.1-1.26c5.6-1.32,12.08-1.26,16.56-4.23,3.91-2.59,5.56-8.56,8.22-13.04-.05-16.86-.11-33.73-.12-50.59,0-1.74.31-3.49.47-5.23-.06-26.71-.11-53.43-.17-80.14.99,0,1.98-.01,2.97-.02.16,2.64.48,5.28.46,7.92-.17,24.14-.4,48.28-.61,72.42.3,1.67.83,3.33.87,5,.25,11.19.39,22.39.57,33.58,0,5.03,0,10.07,0,15.1-.31.68-.63,1.36-.94,2.03-1.45,11.08-7.95,18.14-18.98,20.39-4.57.93-9.18,1.73-13.82,2.24-1.72.19-3.55-.6-5.34-.94-.07-.64-.14-1.29-.21-1.93,3.35-.86,6.7-1.77,10.06-2.56Z"/>
      <path class="cls-2" d="m465.97,177.68c.15,2.68.31,5.36.46,8.04,1.77.43,3.55.86,5.32,1.29,1.68.21,3.36.43,5.04.64,2.49-.33,4.97-.67,7.46-1,.81,0,1.62,0,2.44,0,1.97,0,3.93,0,5.9,0,1.4,0,2.8.01,4.2.02.5-.02,1-.03,1.5-.05.53-1.6,1.05-3.2,1.58-4.8-.14-2.7-.27-5.39-.41-8.09-.32-2.62-.65-5.23-.97-7.85-.03-2.99-.06-5.98-.09-8.97.19-.31.37-.61.56-.92-.18-1.94-.37-3.87-.55-5.81-3.04-1.87-1.68-4.3-.84-6.66.16-1.18.31-2.36.47-3.54.12-.81.23-1.62.35-2.43-.01-11.83-.02-23.65-.03-35.48,0-2.58.02-5.17.02-7.75.12-9.61.24-19.23.36-28.84-1.98-2.7-1.77-8.98.36-11.04,0-5.22-.02-10.45-.03-15.67-.84-.47-1.67-.94-2.51-1.41-8.81-.19-17.62-.38-26.42-.56-.54.19-1.08.38-1.63.56-.08,5.5-.13,11.01-.26,16.51-.04,1.6-.34,3.2-.52,4.8-.12,1.97-.24,3.93-.36,5.9.06,2.45.13,4.91.19,7.36.24,3.7.68,7.39.69,11.09.04,14.27-.05,28.54-.13,42.8,0,.93-.36,1.85-.55,2.78.13,2.45.25,4.9.38,7.35,0,0,0,0,0,0-.24.27-.49.55-.73.82-.15,1.15-.31,2.3-.46,3.45-.02,9.71-.03,19.41-.05,29.12.13-.27.29-.54.45-.81.33-.54.68-1.08.88-1.62-.21.55-.56,1.08-.88,1.62-.16.27-.32.54-.45.81-.25,2.78-.5,5.57-.75,8.35Zm15.14-24.87c.03-7.2-.03-14.41.05-21.61.02-1.42.53-2.84.82-4.26-.06-11.35-.22-22.7-.16-34.05.07-13.02.3-26.04.52-39.05.02-1.38.44-2.75.67-4.13.42-.04.84-.07,1.27-.11.34,1.13.97,2.25.97,3.38.05,40.03.03,80.07.02,120.1,0,.4-.2.8-.3,1.19-.82.38-1.65.75-2.47,1.13-.51-1.16-1.43-2.31-1.45-3.48-.1-6.37.05-12.74.07-19.11Z"/>
      <path class="cls-2" d="m847.13,177.68c.15,2.68.31,5.36.46,8.04,1.77.43,3.55.86,5.32,1.29,1.68.21,3.36.43,5.04.64,2.49-.33,4.97-.67,7.46-1,.81,0,1.62,0,2.44,0,1.97,0,3.93,0,5.9,0,1.4,0,2.8.01,4.2.02.5-.02,1-.03,1.5-.05.53-1.6,1.05-3.2,1.58-4.8-.14-2.7-.27-5.39-.41-8.09-.32-2.62-.65-5.23-.97-7.85-.03-2.99-.06-5.98-.09-8.97.19-.31.37-.61.56-.92-.18-1.94-.37-3.87-.55-5.81-3.04-1.87-1.68-4.3-.84-6.66.16-1.18.31-2.36.47-3.54.12-.81.23-1.62.35-2.43-.01-11.83-.02-23.65-.03-35.48,0-2.58.02-5.17.02-7.75.12-9.61.24-19.23.36-28.84-1.98-2.7-1.77-8.98.36-11.04,0-5.22-.02-10.45-.03-15.67-.84-.47-1.67-.94-2.51-1.41-8.81-.19-17.62-.38-26.42-.56-.54.19-1.08.38-1.63.56-.08,5.5-.13,11.01-.26,16.51-.04,1.6-.34,3.2-.52,4.8-.12,1.97-.24,3.93-.36,5.9.06,2.45.13,4.91.19,7.36.24,3.7.68,7.39.69,11.09.04,14.27-.05,28.54-.13,42.8,0,.93-.36,1.85-.55,2.78.13,2.45.25,4.9.38,7.35,0,0,0,0,0,0-.24.27-.49.55-.73.82-.15,1.15-.31,2.3-.46,3.45-.02,9.71-.03,19.41-.05,29.12.13-.27.29-.54.45-.81.33-.54.68-1.08.88-1.62-.21.55-.56,1.08-.88,1.62-.16.27-.32.54-.45.81-.25,2.78-.5,5.57-.75,8.35Zm15.14-24.87c.03-7.2-.03-14.41.05-21.61.02-1.42.53-2.84.82-4.26-.06-11.35-.22-22.7-.16-34.05.07-13.02.3-26.04.52-39.05.02-1.38.44-2.75.67-4.13.42-.04.84-.07,1.27-.11.34,1.13.97,2.25.97,3.38.05,40.03.03,80.07.02,120.1,0,.4-.2.8-.3,1.19-.82.38-1.65.75-2.47,1.13-.51-1.16-1.43-2.31-1.45-3.48-.1-6.37.05-12.74.07-19.11Z"/>
      <path class="cls-2" d="m409.45,39.22c-3.9-3.34-8.57-6.03-13.29-8.11-6.08-2.68-8.96-1.53-12.78,3.56-2.51,3.35-4.98,6.75-7.46,10.12-2.2,2.73-4.4,5.45-6.6,8.18,0,0,0,0,0,0-.55.55-1.09,1.09-1.64,1.64-1.01,2.46-2.01,4.91-3.02,7.37-.27.54-.55,1.08-.82,1.63-.27,1.09-.54,2.17-.81,3.26-.07.54-.14,1.08-.22,1.62-.11.6-.23,1.21-.34,1.81l-.29-.09c.03.79.06,1.57.08,2.36.2,5.17.41,10.33.61,15.5.27.27.55.53.82.8.08.56.15,1.12.23,1.68l-.16.08c.5.5,1,1,1.5,1.5.1.54.2,1.07.3,1.61,1.04,1.88,2.08,3.77,3.12,5.65.22.14.46.18.71.14,1.34,2.98,2.67,5.97,4.01,8.95.39.46.78.92,1.18,1.38,1.5,2.82,3,5.64,4.51,8.46.73,1.46,1.45,2.91,2.18,4.37.12-.14.26-.15.4-.04-.05,3.94-.1,7.88-.14,11.82-.08.5-.15,1-.23,1.5.09.58.18,1.16.27,1.74-.23,0-.45.04-.67.11-.18,5.15-3.14,8.77-6.63,12.1-3.82,3.21-7.65,6.42-11.47,9.63l-.07.06c-.77.55-1.55,1.1-2.32,1.66-.98.66-1.97,1.3-2.93,1.98-3.54,2.5-3.6,4.09-.3,7.14.3.23.61.45.91.68h0c1.87,1.38,3.74,2.77,5.62,4.16h0c1.09.81,2.18,1.62,3.27,2.43h0c.8.56,1.6,1.11,2.4,1.66h.02c1.08.82,2.16,1.63,3.24,2.44,1.91,1.37,3.91,2.64,5.72,4.15,2.63,2.19,5.04,2.49,7.65-.03,1.08-1.04,2.46-1.77,3.71-2.65.54-.53,1.08-1.06,1.62-1.59l.02-.03c2.96-3.8,5.93-7.61,8.89-11.41.49-.58.98-1.17,1.48-1.75,3.35-4.83,6.7-9.67,10.05-14.5,1.11-3.33,2.24-6.65,3.31-9.99.4-1.24.65-2.52.97-3.78.26-.54.51-1.08.77-1.62-.02-.53-.04-1.06-.05-1.59-.54-6-1.09-12-1.63-18-1.37-2.73-2.73-5.47-4.1-8.2-2.78-4.58-5.56-9.16-8.33-13.74h0c-.81-1.62-1.63-3.25-2.44-4.87-8.4-10,.69-28.26,9.87-32.7,3.33-2.41,6.67-4.83,10-7.24,0-.27,0-.54,0-.81-3.52-4.1-6.63-8.7-10.69-12.18Zm-12.58,104.98c-2,3.65-3.89,7.37-6.03,10.94-2.95,4.94-6.09,9.76-9.21,14.73-3.27-1.64-4.21-2.91-1.88-5.71,3.54-4.26,6.72-8.83,9.79-13.44,1.7-2.55,2.88-5.45,4.29-8.19.52-3.23,1.05-6.45,1.57-9.68-.1-2.13-.3-4.25-.28-6.38.02-1.97.29-3.93.44-5.89-1.34-2.97-2.68-5.94-4.02-8.92-3.06-5.61-6.21-11.18-9.15-16.86-1.36-2.64-2.31-5.5-3.44-8.25-.47-.4-1.36-.83-1.33-1.18.36-4.04.87-8.08,1.34-12.11.24-1.31.47-2.62.71-3.93-.86-4.92,1.29-8.78,4.36-12.32,2.99-4.25,5.99-8.5,9.13-12.96,3.71,3.04,2.86,4.89,1.04,7.6-4,5.94-7.4,12.29-11.04,18.47-1.7,4.89-2.23,9.79-.02,14.68.44,1.18.88,2.36,1.32,3.54.27.65.53,1.29.8,1.94.33.96.67,1.92,1,2.89.42.97.84,1.95,1.26,2.92.36.67.71,1.34,1.07,2.01.28.64.55,1.29.83,1.93.67,1.17,1.35,2.35,2.02,3.52l1.67,4.05c.23.56.46,1.11.7,1.67.24.54.49,1.07.73,1.61.17.2.24.44.21.7.18.3.37.6.55.91.87,1.38,1.74,2.76,2.61,4.14.17.22.37.44.57.65-.2-.21-.4-.43-.57-.65.31,1.06.62,2.12.93,3.18-.19,7.65,1.1,15.41-1.59,22.89-.12.51-.25,1.01-.37,1.52Z"/>
      <path class="cls-2" d="m453.67,39.22c-3.9-3.34-8.57-6.03-13.29-8.11-6.08-2.68-8.96-1.53-12.78,3.56-2.51,3.35-4.98,6.75-7.46,10.12-2.2,2.73-4.4,5.45-6.6,8.18,0,0,0,0,0,0-.55.55-1.09,1.09-1.64,1.64-1.01,2.46-2.01,4.91-3.02,7.37-.27.54-.55,1.08-.82,1.63-.27,1.09-.54,2.17-.81,3.26-.07.54-.14,1.08-.22,1.62-.11.6-.23,1.21-.34,1.81l-.29-.09c.03.79.06,1.57.08,2.36.2,5.17.41,10.33.61,15.5.27.27.55.53.82.8.08.56.15,1.12.23,1.68l-.16.08c.5.5,1,1,1.5,1.5.1.54.2,1.07.3,1.61,1.04,1.88,2.08,3.77,3.12,5.65.22.14.46.18.71.14,1.34,2.98,2.67,5.97,4.01,8.95.39.46.78.92,1.18,1.38,1.5,2.82,3,5.64,4.51,8.46.73,1.46,1.45,2.91,2.18,4.37.12-.14.26-.15.4-.04-.05,3.94-.1,7.88-.14,11.82-.08.5-.15,1-.23,1.5.09.58.18,1.16.27,1.74-.23,0-.45.04-.67.11-.18,5.15-3.14,8.77-6.63,12.1-3.82,3.21-7.65,6.42-11.47,9.63l-.07.06-2.32,1.66c-.98.66-1.97,1.3-2.93,1.98-3.54,2.5-3.6,4.09-.3,7.14.3.23.61.45.91.68h0c1.87,1.38,3.74,2.77,5.62,4.16h0c1.09.81,2.18,1.62,3.27,2.43h0c.8.56,1.6,1.11,2.4,1.66h.02c1.08.82,2.16,1.63,3.24,2.44,1.91,1.37,3.91,2.64,5.72,4.15,2.63,2.19,5.04,2.49,7.65-.03,1.08-1.04,2.46-1.77,3.71-2.65.54-.53,1.08-1.06,1.62-1.59l.02-.03c2.96-3.8,5.93-7.61,8.89-11.41.49-.58.98-1.17,1.48-1.75,3.35-4.83,6.7-9.67,10.05-14.5,1.11-3.33,2.24-6.65,3.31-9.99.4-1.24.65-2.52.97-3.78.26-.54.51-1.08.77-1.62-.02-.53-.04-1.06-.05-1.59-.54-6-1.09-12-1.63-18-1.37-2.73-2.73-5.47-4.1-8.2-2.78-4.58-5.56-9.16-8.33-13.74h0c-.81-1.62-1.63-3.25-2.44-4.87-8.4-10,.69-28.26,9.87-32.7,3.33-2.41,6.67-4.83,10-7.24,0-.27,0-.54,0-.81-3.52-4.1-6.63-8.7-10.69-12.18Zm-12.58,104.98c-2,3.65-3.89,7.37-6.03,10.94-2.95,4.94-6.09,9.76-9.21,14.73-3.27-1.64-4.21-2.91-1.88-5.71,3.54-4.26,6.72-8.83,9.79-13.44,1.7-2.55,2.88-5.45,4.29-8.19.52-3.23,1.05-6.45,1.57-9.68-.1-2.13-.3-4.25-.28-6.38.02-1.97.29-3.93.44-5.89-1.34-2.97-2.68-5.94-4.02-8.92-3.06-5.61-6.21-11.18-9.15-16.86-1.36-2.64-2.31-5.5-3.44-8.25-.47-.4-1.36-.83-1.33-1.18.36-4.04.87-8.08,1.34-12.11.24-1.31.47-2.62.71-3.93-.86-4.92,1.29-8.78,4.36-12.32,2.99-4.25,5.99-8.5,9.13-12.96,3.71,3.04,2.86,4.89,1.04,7.6-4,5.94-7.4,12.29-11.04,18.47-1.7,4.89-2.23,9.79-.02,14.68.44,1.18.88,2.36,1.32,3.54.27.65.53,1.29.8,1.94.33.96.67,1.92,1,2.89.42.97.84,1.95,1.26,2.92.36.67.71,1.34,1.07,2.01.28.64.55,1.29.83,1.93l2.02,3.52c.56,1.35,1.11,2.7,1.67,4.05.23.56.46,1.11.7,1.67.24.54.49,1.07.73,1.61.17.2.24.44.21.7.18.3.37.6.55.91.87,1.38,1.74,2.76,2.61,4.14.17.22.37.44.57.65-.2-.21-.4-.43-.57-.65.31,1.06.62,2.12.93,3.18-.19,7.65,1.1,15.41-1.59,22.89-.12.51-.25,1.01-.37,1.52Z"/>
      <path class="cls-2" d="m926.05,39.22c-3.9-3.34-8.57-6.03-13.29-8.11-6.08-2.68-8.96-1.53-12.78,3.56-2.51,3.35-4.98,6.75-7.46,10.12-2.2,2.73-4.4,5.45-6.6,8.18,0,0,0,0,0,0-.55.55-1.09,1.09-1.64,1.64-1.01,2.46-2.01,4.91-3.02,7.37-.27.54-.55,1.08-.82,1.63-.27,1.09-.54,2.17-.81,3.26-.07.54-.14,1.08-.22,1.62-.11.6-.23,1.21-.34,1.81l-.29-.09c.03.79.06,1.57.08,2.36.2,5.17.41,10.33.61,15.5.27.27.55.53.82.8.08.56.15,1.12.23,1.68l-.16.08c.5.5,1,1,1.5,1.5.1.54.2,1.07.3,1.61,1.04,1.88,2.08,3.77,3.12,5.65.22.14.46.18.71.14,1.34,2.98,2.67,5.97,4.01,8.95.39.46.78.92,1.18,1.38,1.5,2.82,3,5.64,4.51,8.46.73,1.46,1.45,2.91,2.18,4.37.12-.14.26-.15.4-.04-.05,3.94-.1,7.88-.14,11.82-.08.5-.15,1-.23,1.5.09.58.18,1.16.27,1.74-.23,0-.45.04-.67.11-.18,5.15-3.14,8.77-6.63,12.1-3.82,3.21-7.65,6.42-11.47,9.63l-.07.06-2.32,1.66c-.98.66-1.97,1.3-2.93,1.98-3.54,2.5-3.6,4.09-.3,7.14.3.23.61.45.91.68h0c1.87,1.38,3.74,2.77,5.62,4.16h0c1.09.81,2.18,1.62,3.27,2.43h0c.8.56,1.6,1.11,2.4,1.66h.02c1.08.82,2.16,1.63,3.24,2.44,1.91,1.37,3.91,2.64,5.72,4.15,2.63,2.19,5.04,2.49,7.65-.03,1.08-1.04,2.46-1.77,3.71-2.65.54-.53,1.08-1.06,1.62-1.59l.02-.03c2.96-3.8,5.93-7.61,8.89-11.41.49-.58.98-1.17,1.48-1.75,3.35-4.83,6.7-9.67,10.05-14.5,1.11-3.33,2.24-6.65,3.31-9.99.4-1.24.65-2.52.97-3.78.26-.54.51-1.08.77-1.62-.02-.53-.04-1.06-.05-1.59-.54-6-1.09-12-1.63-18-1.37-2.73-2.73-5.47-4.1-8.2-2.78-4.58-5.56-9.16-8.33-13.74h0c-.81-1.62-1.63-3.25-2.44-4.87-8.4-10,.69-28.26,9.87-32.7,3.33-2.41,6.67-4.83,10-7.24,0-.27,0-.54,0-.81-3.52-4.1-6.63-8.7-10.69-12.18Zm-12.58,104.98c-2,3.65-3.89,7.37-6.03,10.94-2.95,4.94-6.09,9.76-9.21,14.73-3.27-1.64-4.21-2.91-1.88-5.71,3.54-4.26,6.72-8.83,9.79-13.44,1.7-2.55,2.88-5.45,4.29-8.19.52-3.23,1.05-6.45,1.57-9.68-.1-2.13-.3-4.25-.28-6.38.02-1.97.29-3.93.44-5.89-1.34-2.97-2.68-5.94-4.02-8.92-3.06-5.61-6.21-11.18-9.15-16.86-1.36-2.64-2.31-5.5-3.44-8.25-.47-.4-1.36-.83-1.33-1.18.36-4.04.87-8.08,1.34-12.11.24-1.31.47-2.62.71-3.93-.86-4.92,1.29-8.78,4.36-12.32,2.99-4.25,5.99-8.5,9.13-12.96,3.71,3.04,2.86,4.89,1.04,7.6-4,5.94-7.4,12.29-11.04,18.47-1.7,4.89-2.23,9.79-.02,14.68.44,1.18.88,2.36,1.32,3.54.27.65.53,1.29.8,1.94.33.96.67,1.92,1,2.89.42.97.84,1.95,1.26,2.92.36.67.71,1.34,1.07,2.01.28.64.55,1.29.83,1.93.67,1.17,1.35,2.35,2.02,3.52l1.67,4.05c.23.56.46,1.11.7,1.67.24.54.49,1.07.73,1.61.17.2.24.44.21.7.18.3.37.6.55.91.87,1.38,1.74,2.76,2.61,4.14.17.22.37.44.57.65-.2-.21-.4-.43-.57-.65.31,1.06.62,2.12.93,3.18-.19,7.65,1.1,15.41-1.59,22.89-.12.51-.25,1.01-.37,1.52Z"/>
      <path class="cls-2" d="m178.46,40.34h0c-.24-1.49-.47-2.98-.71-4.47-.72.04-1.44.07-2.16.11-.6.04-1.19.08-1.79.12-2.53-.13-5.07-.26-7.6-.39-5.68.2-11.37.4-17.05.6-.52.31-1.05.62-1.57.93-.03.35-.07.7-.1,1.05.09.05.17.11.26.16-.09-.04-.18-.08-.27-.12l.24,1.23c.05,1.53.09,3.07.14,4.6.43-.24.86-.49,1.3-.73h0s0,0,0,0c-.43.24-.86.49-1.3.73-.04,2.34-.08,4.68-.13,7.02.43.03.86.05,1.29.08.03,3.74.14,7.47.05,11.2-.03,1.16-.59,2.31-.91,3.47.08,2.56.16,5.11.24,7.67.11.09.25.19.39.28-.14-.09-.28-.19-.39-.28-.09,4.14-.18,8.28-.26,12.42,0,0,.35.08.35.08h.36c-.02,3.59-.03,7.19-.05,10.79.02,3.06.03,6.12.05,9.18-.11,3.14-.22,6.28-.33,9.43-.14,2.98-.28,5.96-.41,8.94.17.98.34,1.96.52,2.94,0,0,0,0,0,0-.37.14-.74.28-1.11.42.05,1.56.11,3.11.16,4.67,0,0,0,0,0,0-.11.73-.22,1.45-.33,2.18-.14,2.88-.29,5.77-.43,8.65-.56.5-1.11,1-1.67,1.5-2.82-.02-5.64-.05-8.45-.07-.53-.14-1.06-.28-1.59-.43-2.43-.48-4.86-.95-7.3-1.43h0c-.41-.39-.82-.78-1.22-1.18-.76-.01-1.52-.02-2.29-.03h0c.03-.35.06-.69.09-1.04-.16.07-.32.11-.49.12-.11-3.02-.21-6.05-.32-9.07.23-5.94.47-11.88.7-17.81-.19-.77-.38-1.53-.57-2.3.04-.51.09-1.01.13-1.52h0c.05-.09.15-.19.14-.27-.02-.18-.1-.36-.16-.54h0c-.03-.52-.07-1.04-.1-1.56.05-3.87.09-7.75.14-11.62.18-3.85.37-7.69.55-11.54,0-4.94.01-9.88.02-14.82-.18-6.16-.36-12.31-.55-18.47-.2-1.8-.41-3.61-.61-5.41,0,0,0,0,0,0,.08-2.6.15-5.19.23-7.79-.55-.46-1.1-.91-1.65-1.37.01-.28.02-.55.03-.83-9.99,0-19.97,0-29.96,0-.21,1.29-.43,2.58-.64,3.86.1,1.24.2,2.49.3,3.73.27,1.56.54,3.11.8,4.67.2,4.4.4,8.8.6,13.2.24,1.01.49,2.01.73,3.02h0c.1,1.81.2,3.63.31,5.44.02,1.53.03,3.07.05,4.6.15,1.32.3,2.64.45,3.96-.03,2.33-.06,4.67-.09,7,.05,1.24.1,2.48.16,3.72.12,6.25.24,12.5.36,18.74.19.22.38.44.58.66.02.52.03,1.03.05,1.55-.16,3.36-.32,6.72-.48,10.08.23,4.12.46,8.24.69,12.36h0c.04,1.04.08,2.07.13,3.11-.1,1.38-.25,2.77-.28,4.15-.09,4.29-.13,8.58-.19,12.86.15,1.01.29,2.02.44,3.03.37,1.08.75,2.16,1.12,3.24.64.91,1.28,1.82,1.92,2.73,1.46,1.65,2.92,3.31,4.37,4.96h0c.77.26,1.54.51,2.32.76.35.06.69.14,1.03.22.67.17,1.31.38,1.89.66-.59-.28-1.23-.49-1.89-.66-.33-.08-.68-.16-1.03-.22-.03.27-.05.54-.08.82.57.71,1.13,1.43,1.7,2.14.51.28,1.02.55,1.53.83,1.03.23,2.05.47,3.08.7h0c.25.07.5.14.75.21,1.28.81,2.55,1.62,3.83,2.43.28-.12.56-.23.85-.35,1.1.44,2.2.88,3.3,1.33.7.4,1.4.8,2.1,1.21l3.41,1.66c.68.43,1.35.86,2.03,1.29,2.61-.16,5.45.27,7.78-.62,3.3-1.26,6.23-3.5,9.32-5.31-.11-.42-.15-.79-.15-1.12,0,.33.05.7.15,1.12.67.75,1.34,1.5,2,2.24.1.48.21.96.31,1.44.8.87,1.59,1.74,2.17,2.37h5.53c1.06.04,2.11.07,3.17.11.75-.19,1.49-.38,2.24-.57,1.57-.09,3.14-.17,4.7-.26,2.04-.6,4.09-1.19,6.13-1.79-.02-.23-.02-.46.02-.69.12-.79.17-1.52.12-2.18.05.66,0,1.39-.12,2.18-.03.23-.04.46-.02.69,1.04.08,2.09.15,3.13.23.4-2.09.8-4.19,1.2-6.28,0,0-.19-.16-.19-.16l-.2.16c.01-9.79.03-19.57.04-29.36.06-1.82.11-3.64.17-5.47.22-2.3.44-4.61.66-6.91,0-1.31.02-2.63.02-3.94,0-.49,0-.99,0-1.48-.2-.78-.4-1.57-.6-2.35.15-4.13.3-8.26.45-12.38-.22-2.53-.44-5.07-.65-7.6,0,0,0,0,0,0,.44-.06.87-.11,1.31-.17-.02-1.52-.05-3.05-.07-4.57.31-.79.63-1.57.94-2.36.05-2.32.09-4.64.14-6.96,0-2.06.02-4.13.02-6.19-.15-1.07-.29-2.14-.44-3.21-.41-.2-.82-.4-1.23-.6-.01,1.05-.02,2.09-.04,3.14.01-1.05.02-2.09.04-3.14.41.2.82.4,1.23.6.23-6.4.46-12.8.69-19.2-.19-2.08-.38-4.15-.57-6.23.1-1.79.19-3.58.29-5.37.17-2.34.35-4.68.52-7.02Zm-10.82,103.18c.02.36.02.71,0,1.06.03-.35.02-.71,0-1.06Zm-.07,1.58c-.06.34-.16.67-.31.98.15-.31.25-.64.31-.98Zm-16.09-74.57c.16,0,.32,0,.48.02-.16-.01-.32-.02-.48-.02h0Zm8.27,4.91c-.18.1-.38.19-.55.29.17-.1.36-.19.55-.29Zm8.42-24.84c.21-.19.25-.39.17-.58.08.19.04.39-.17.58s-.59.39-1.2.58h0c.61-.19.99-.39,1.2-.58Zm5.77-11.03h0c.26.48.61.96.9,1.44-.29-.48-.64-.96-.9-1.44Zm0,0h0s0,0,0,0h0c-.52,0-1.03,0-1.55,0,.52,0,1.03,0,1.55,0Zm-19.37,0h0c-.77,0-1.55,0-2.32,0,.77,0,1.55,0,2.32,0Zm-34.19,98.76c.5.87,1.23,1.72,1.73,2.59h0c-.5-.87-1.23-1.72-1.73-2.59Zm2.93-28.36c-.34.29-.67.57-1.01.86.34-.29.67-.57,1.01-.86.19-.23.38-.47.57-.7-.19.23-.38.47-.57.7Zm38.1,55.73c.05-.25.09-.51.13-.76-1.68-4.03-2.41-8.13-.86-12.39,0-.48.01-.95.02-1.43-2.82,1.22-5.64,2.44-8.45,3.66-2.37,1.75-4.74,3.49-7.11,5.24-2.59,1.27-5.17,2.54-7.76,3.8-5.85,3.03-10.21-.32-14.62-3.43-.86-.6-1.72-1.19-2.58-1.79-.16-.05-.27-.15-.32-.31-2.92-2.4-5.84-4.81-8.77-7.21-.24-3.5-.53-7-.72-10.51-.18-3.21-.25-6.42-.38-9.63-.02-.56-.05-1.13-.07-1.69-.08-4.88-.16-9.75-.24-14.63-.24-5.94-.48-11.88-.72-17.82-.16-3.08-.32-6.16-.48-9.24,0-1.3,0-2.6,0-3.9,0-.51-.02-1.01-.02-1.52h0c-.07-2.85-.14-5.7-.21-8.55-.07-6.17-.14-12.34-.22-18.51-2.44-2.8-1.81-5.72-.35-8.68l.46-1.31c1,0,1.99-.02,2.99-.02l-.17.15c2.17.98,2.34,2.03.74,4.55.06,10.79.12,21.57.18,32.36.2,4.05.5,8.09.56,12.14.08,5.51-.02,11.02-.05,16.53.1,7.98.2,15.97.3,23.95.24,1.29.48,2.58.71,3.87,0,0,0,0,0,0,.3,3.35.61,6.7.91,10.04.07.65.13,1.3.2,1.95,0,0,.21.26.21.26,2.19,1.38,4.38,2.76,6.57,4.15,2.53,1.34,5.05,2.68,7.58,4.01.55.24,1.1.49,1.65.73.99.3,1.98.6,2.97.9,2.28-.23,4.57-.46,6.85-.69.62-.39,1.25-.79,1.87-1.18.53-.17,1.06-.34,1.59-.51,2.35-1.87,4.7-3.73,7.06-5.6,2.28-1.82,4.57-3.63,6.85-5.45.75-.81,1.5-1.62,2.25-2.43-.15-.13-.29-.26-.44-.39.34-.16.68-.33,1.02-.49.15-5.39.3-10.78.45-16.16-.19-1.8-.38-3.6-.57-5.39,0-1.29,0-2.58,0-3.87.06-8.23.12-16.46.17-24.69-.45-.27-.89-.54-1.34-.8.44-.04.88-.09,1.32-.13-.1-5.91-.21-11.83-.31-17.74-.07.05-.15.1-.24.14.09-.05.17-.1.24-.14,0-.5,0-1,0-1.5,0-7.5.01-14.99.02-22.49,0-.77,0-1.54,0-2.3.96-1.12-.92-5.12,3.15-3.09.16,16.51.32,33.01.48,49.52.02.61.04,1.21.06,1.82.1,8.42.21,16.83.31,25.25-.14,2.84-.27,5.68-.4,8.52.13.47.25.94.38,1.41.23,5.21.47,10.42.7,15.63.99-.33,1.64-.82,2.05-1.39-.41.58-1.05,1.06-2.05,1.39-.16.55-.33,1.11-.49,1.66.12.48.24.96.36,1.44-.25,4.46-.5,8.92-.74,13.39-.18.44-.36.88-.54,1.32-.66-.25-1.32-.51-1.98-.77-.04.25-.09.51-.13.76,0,0,0,0,0,0Z"/>
      <path class="cls-2" d="m735.62,109.55l1.65,3.22c-.44-1.67-.87-3.33-1.31-5-.11.59-.23,1.18-.34,1.77Z"/>
      <path class="cls-2" d="m743.34,154.14c.51,2.47.26,5.09.31,7.65-.07,1.63-.13,3.27-.2,4.9.16,1.01.33,2.01.49,3.02.46,4.33.92,8.65,1.37,12.98.12.71.24,1.42.36,2.13,1.74.1,3.49.2,5.23.31,1.31-.29,2.61-.8,3.92-.82,6.12-.1,12.24-.23,18.35-.03,3.7.12,5.29-1.06,4.32-4.83-.59-2.67-1.17-5.33-1.76-8-1.58-4.88-3.36-9.7-4.66-14.64-.88-3.35-1.09-6.87-1.6-10.31-.28-1.86-.56-3.72-.84-5.58-.82-3.37-1.67-6.74-2.46-10.12-1.56-6.71-3.12-13.42-4.57-20.15-.3-1.39-.13-2.89-.18-4.33-.58-3.59-1.14-7.19-1.73-10.78-2.72-16.47-5.45-32.94-8.18-49.41-.09-.3-.18-.59-.27-.89-.17-.99-.34-1.98-.51-2.97-.52-.78-1.03-1.57-1.55-2.35-1.05-.19-2.1-.37-3.16-.56-2.39,0-4.77,0-7.16,0-10.75.07-21.49.13-32.24.2l-1.17,1.67c.04.99.08,1.98.12,2.97.21,2.77,1.32,5.77-2.06,7.56-.09.76-.18,1.53-.27,2.29-.45,2.71-.9,5.42-1.35,8.13-.14,1.02-.28,2.04-.42,3.06-1.26,6.2-2.52,12.41-3.77,18.61-.03.81-.07,1.62-.1,2.43-.73,3.48-1.46,6.96-2.18,10.44-.12,1.29-.24,2.58-.36,3.87-.19.85-.38,1.7-.57,2.56-.08.78-.16,1.55-.24,2.33-.14.31-.29.62-.43.93-.12,1-.25,2.01-.37,3.01-.14,1.39-.27,2.77-.41,4.16-.31.79-.61,1.58-.92,2.36-.22,1.37-.45,2.74-.67,4.11l-.04,2.36c-.49,1.67-.98,3.33-1.47,5-.21,1.38-.41,2.77-.62,4.15-.07.96-.15,1.93-.22,2.89-.34.79-.67,1.59-1.01,2.38-.29,1.6-.58,3.21-.86,4.81.08.54.16,1.08.24,1.63-.5,1.69-1,3.38-1.5,5.06-.17,1.26-.33,2.51-.5,3.77l-.13,2.2c-.11.62-.23,1.24-.34,1.85-.28.82-.55,1.65-.83,2.47-.12.74-.23,1.48-.35,2.22-.15.33-.29.67-.44,1-.08.22-.13.45-.15.68-.5,2.7-1.01,5.4-1.51,8.1-.01,1.07-.03,2.14-.04,3.2-.24,3.19-.47,6.37-.71,9.56l-.18.28,3.43.06c5.88-.01,11.76-.02,17.63-.03,1.05,0,2.11-.01,3.16-.02.28-.07.55-.14.83-.21,1.08-1.12,2.87-2.1,3.11-3.37,1.56-8.33,2.84-16.72,4.06-25.12.31-2.16.4-4.08,3.35-3.54,3.71.11,7.43.23,11.14.34,4.23-.07,8.45-.14,12.68-.22,1.09.85,2.92,1.55,3.13,2.58Zm-27.02-17.63c-3.18.13-6.36.15-9.52.46-1.47.14-2.9.83-4.34,1.27l-1.28,4.32c-1.65,9.4-3.23,18.81-5.05,28.18-.21,1.07-1.8,1.87-2.75,2.79l-1.4-.73c.97-5.19,1.83-10.4,2.92-15.56,2.77-13.09,5.65-26.16,8.45-39.25.25-1.16.15-2.39.21-3.59,1.44-7.17,2.84-14.36,4.32-21.52.87-4.22,1.73-8.46,2.85-12.61.29-1.06,1.53-1.86,2.35-2.77-.5,4.5-.77,9.05-1.57,13.5-1.81,9.98-3.91,19.91-5.89,29.86-.11,1.02-.21,2.05-.32,3.07-.42,1.63-.84,3.25-1.25,4.88.03,1.08.05,2.17.08,3.25.13.48.19,1.34.41,1.38,2.31.47,4.65.82,6.98,1.2,1.97-.05,3.95.01,5.91-.19,2.05-.21,4.08-.67,6.12-1.02,8.03-.21,16.05-.42,24.08-.63.83-.92,2.35-1.83,2.35-2.75,0-2.73-.53-5.46-.96-8.18-1.24-7.86-2.52-15.7-3.79-23.55-1.74-8.6-3.48-17.2-5.21-25.8-.11-1.48.05-3.06-.39-4.44-1.36-4.25-2.94-8.43-4.44-12.63-.85-.44-1.69-1.22-2.55-1.25-3.04-.1-6.09.06-9.14.13-.48,0-.97,0-1.45,0-.79-.06-1.59-.12-2.38-.17,0,.54.01,1.08.02,1.62-1.58,6.62-3.12,13.25-4.8,19.84-.17.68-1.12,1.16-1.73,1.72.74-6.19,1.43-12.38,2.24-18.55.2-1.56.76-3.08,1.15-4.62h0c.19-.33.38-.67.57-1,.55-.22,1.1-.43,1.64-.65,6.5-.03,13-.05,19.5-.08.34.69.68,1.39,1.02,2.08.7,5.19,1.4,10.39,2.1,15.58.69,1.05,1.71,2.01,2.01,3.15.74,2.82,1.22,5.71,1.66,8.59.67,4.42,1.21,8.87,1.81,13.3,1.62,8,3.31,15.99,4.83,24.02.71,3.74,1.08,7.55,1.61,11.33.25,1.59.49,3.18.74,4.77,0,.55,0,1.1,0,1.64.53.3,1.45.53,1.53.91.64,3.44,1.13,6.92,1.67,10.38.97,5.54,1.94,11.09,2.92,16.63.15.6.3,1.2.45,1.8.31,2.73.61,5.47.92,8.2-.64.05-1.29.11-1.93.16-.17-.15-.34-.28-.53-.41-.3-.51-.6-1.02-.9-1.53-.98-4.72-2.09-9.42-2.87-14.17-.33-2.04.03-4.19.07-6.3-.66-1.9-1.67-3.77-1.88-5.72-.33-3.06-.11-6.17-.12-9.26-.82-.34-1.64-.69-2.46-1.03-11.52-.01-23.04-.03-34.56-.04Zm3.84-13.89c-.46-.08-.93-.16-1.39-.23.12.21.24.41.36.59.25.36.5.65.77.89-.27-.24-.52-.53-.77-.89-.12-.18-.24-.37-.36-.59h0c.27-4.28.54-8.55.81-12.83.5-2.39,1-4.78,1.5-7.17.16-1.63.05-3.35.54-4.88,1.31-4.08,2.87-8.07,4.33-12.1.62-2.32,1.23-4.65,1.85-6.97.48.17.95.35,1.43.52.13.31.27.61.4.92.09.52.18,1.04.27,1.56.47,1.64.95,3.27,1.42,4.91.1.77.2,1.54.29,2.31.47,1.9.94,3.8,1.41,5.7.29,1.32.58,2.65.87,3.97.3,1.62.61,3.24.91,4.86.38,1.53.76,3.07,1.14,4.6.44,1.67.87,3.33,1.31,5,.03,1.58.07,3.16.1,4.74.18,1.36.36,2.72.55,4.07-.26.52-.52,1.03-.78,1.55-3.72.19-7.43.37-11.15.56-.17.07-.34.14-.5.2.17-.07.34-.13.5-.2-1.94-.36-3.88-.72-5.83-1.08Z"/>
      <path class="cls-2" d="m329.77,146.71c.51,2.49.26,5.14.32,7.73-.07,1.65-.13,3.3-.2,4.95.17,1.02.33,2.03.5,3.05.46,4.37.93,8.74,1.39,13.12.12.72.24,1.44.36,2.16,1.76.1,3.53.21,5.29.31,1.32-.29,2.63-.8,3.96-.83,6.18-.11,12.37-.24,18.54-.03,3.74.12,5.35-1.07,4.37-4.88-.59-2.69-1.19-5.39-1.78-8.08-1.59-4.93-3.39-9.8-4.71-14.8-.89-3.38-1.1-6.94-1.62-10.42-.28-1.88-.56-3.76-.85-5.64-.83-3.41-1.69-6.81-2.48-10.22-1.57-6.78-3.15-13.56-4.62-20.36-.3-1.41-.13-2.92-.18-4.38-.58-3.63-1.15-7.27-1.75-10.9-2.75-16.64-5.51-33.29-8.26-49.93-.09-.3-.18-.6-.27-.9-.17-1-.34-2-.51-3.01-.52-.79-1.05-1.58-1.57-2.38-1.06-.19-2.13-.38-3.19-.57-2.41,0-4.82,0-7.23,0-10.86.07-21.72.13-32.58.2-.39.56-.79,1.12-1.18,1.68.04,1,.08,2,.12,3,.21,2.79,1.33,5.84-2.08,7.64-.09.77-.18,1.54-.27,2.32-.45,2.74-.91,5.48-1.36,8.22-.14,1.03-.29,2.06-.43,3.1-1.27,6.27-2.54,12.54-3.81,18.81-.03.82-.07,1.64-.1,2.46-.74,3.52-1.47,7.04-2.21,10.55-.12,1.3-.24,2.61-.37,3.91-.19.86-.39,1.72-.58,2.58-.08.78-.16,1.57-.24,2.35-.15.31-.29.63-.44.94-.13,1.02-.25,2.03-.38,3.05l-.42,4.2c-.31.8-.62,1.59-.93,2.39-.23,1.38-.45,2.77-.68,4.15l-.04,2.39c-.49,1.68-.99,3.37-1.48,5.05-.21,1.4-.42,2.8-.62,4.2-.07.97-.15,1.95-.22,2.92-.34.8-.68,1.61-1.02,2.41-.29,1.62-.58,3.24-.87,4.86.08.55.16,1.1.24,1.64-.51,1.71-1.01,3.41-1.52,5.12-.17,1.27-.34,2.54-.5,3.81l-.14,2.22c-.11.62-.23,1.25-.34,1.87-.28.83-.56,1.67-.84,2.5-.12.75-.23,1.5-.35,2.24-.15.34-.3.67-.44,1.01-.08.22-.13.45-.15.69-.51,2.73-1.02,5.46-1.53,8.18-.01,1.08-.03,2.16-.04,3.24-.24,3.22-.48,6.44-.72,9.66l-.18.28,3.47.06c5.94-.01,11.88-.02,17.82-.03,1.06,0,2.13-.01,3.19-.02.28-.07.56-.14.84-.21,1.09-1.13,2.9-2.12,3.14-3.41,1.57-8.42,2.87-16.9,4.1-25.38.32-2.18.4-4.13,3.39-3.58,3.75.11,7.51.23,11.26.34,4.27-.07,8.54-.15,12.81-.22,1.1.86,2.95,1.57,3.16,2.61Zm-27.3-17.81c-3.21.14-6.43.16-9.62.46-1.49.14-2.93.84-4.39,1.28-.43,1.46-.86,2.91-1.3,4.37-1.67,9.5-3.26,19.01-5.1,28.48-.21,1.08-1.82,1.88-2.78,2.82l-1.41-.73c.98-5.24,1.85-10.51,2.95-15.73,2.8-13.23,5.71-26.44,8.53-39.66.25-1.17.15-2.42.21-3.63,1.45-7.25,2.87-14.51,4.36-21.75.88-4.27,1.75-8.54,2.88-12.75.29-1.07,1.54-1.88,2.38-2.8-.51,4.55-.77,9.14-1.59,13.64-1.83,10.08-3.95,20.12-5.95,30.17-.11,1.03-.21,2.07-.32,3.1-.42,1.64-.84,3.29-1.27,4.93.03,1.1.06,2.19.08,3.29.13.48.19,1.35.41,1.4,2.34.48,4.7.83,7.05,1.21,1.99-.05,3.99.01,5.97-.19,2.08-.21,4.13-.68,6.19-1.03,8.11-.21,16.22-.43,24.33-.64.84-.93,2.38-1.85,2.38-2.78,0-2.75-.54-5.52-.97-8.26-1.25-7.94-2.55-15.87-3.83-23.8-1.76-8.69-3.51-17.38-5.27-26.08-.12-1.5.05-3.09-.4-4.49-1.37-4.29-2.97-8.52-4.49-12.77-.86-.44-1.7-1.23-2.58-1.26-3.07-.1-6.16.06-9.23.13-.49,0-.98,0-1.47,0-.8-.06-1.6-.12-2.41-.17,0,.55.01,1.09.02,1.64-1.6,6.69-3.16,13.39-4.86,20.05-.17.68-1.13,1.17-1.75,1.74.74-6.25,1.45-12.51,2.26-18.75.21-1.58.77-3.12,1.16-4.67h0c.19-.34.39-.67.58-1.01.55-.22,1.11-.44,1.66-.66,6.57-.03,13.14-.05,19.71-.08.34.7.69,1.4,1.03,2.1.71,5.25,1.41,10.5,2.12,15.74.7,1.06,1.73,2.03,2.03,3.19.74,2.85,1.23,5.77,1.68,8.68.68,4.47,1.23,8.96,1.83,13.44,1.64,8.09,3.35,16.16,4.88,24.27.72,3.78,1.09,7.63,1.62,11.45.25,1.61.5,3.22.75,4.82,0,.55,0,1.11,0,1.66.53.3,1.47.53,1.54.92.65,3.48,1.15,6.99,1.69,10.49.98,5.6,1.96,11.2,2.95,16.81l.46,1.82c.31,2.76.62,5.52.93,8.29-.65.05-1.3.11-1.95.16-.17-.15-.35-.28-.53-.41-.3-.52-.61-1.03-.91-1.55-.99-4.77-2.12-9.52-2.9-14.32-.34-2.06.03-4.24.07-6.36-.66-1.92-1.69-3.81-1.9-5.78-.33-3.09-.11-6.24-.12-9.36-.83-.35-1.66-.7-2.49-1.05-11.64-.01-23.28-.03-34.92-.04Zm3.88-14.04c-.47-.08-.94-.16-1.41-.24.12.21.24.41.36.59.25.36.51.66.78.9-.27-.24-.53-.54-.78-.9-.12-.18-.25-.38-.36-.59h0c.27-4.32.54-8.64.81-12.96.51-2.41,1.01-4.83,1.52-7.24.17-1.65.06-3.39.55-4.93,1.32-4.12,2.9-8.16,4.38-12.22.62-2.35,1.24-4.7,1.87-7.04.48.17.96.35,1.44.52.14.31.27.62.41.92.09.53.18,1.05.27,1.58.48,1.65.96,3.3,1.44,4.96.1.78.2,1.55.3,2.33.48,1.92.95,3.84,1.43,5.76.29,1.34.59,2.67.88,4.01.31,1.64.61,3.27.92,4.91.38,1.55.77,3.1,1.15,4.65.44,1.68.88,3.37,1.33,5.05.03,1.6.07,3.2.1,4.79.18,1.37.37,2.74.55,4.12-.26.52-.52,1.04-.79,1.57-3.76.19-7.51.38-11.27.57-.17.07-.34.14-.51.2.17-.07.34-.13.51-.2-1.96-.36-3.92-.73-5.89-1.09Z"/>
      <g>
        <path class="cls-2" d="m596.88,206.12c.52-.09,1.04-.18,1.55-.27.72-.05,1.45-.1,2.17-.14,1.97-.14,3.95-.28,5.92-.42.02-.41.03-.82.05-1.23-3.47-.16-6.95-.32-10.42-.48.24.85.49,1.7.73,2.55Z"/>
        <path class="cls-2" d="m647.87,39.85c-5.68-2.44-11.36-4.88-17.03-7.33-3.07-.55-6.15-1.1-9.22-1.65-1.49.89-2.99,1.79-4.48,2.68-.18,9.05-.36,18.11-.54,27.16.26,1.11.73,2.22.73,3.34.13,18.86.21,37.72.26,56.58,0,.98-.34,1.95-.52,2.93.17,5.7.33,11.4.5,17.1.01.68.02,1.35.04,2.03.08.31.12.62.13.93,2.69.02,5.49.54,8.03-.06,5.16-1.22,10.17-3.06,15.25-4.64,1.2-.78,2.52-1.42,3.58-2.35,3.25-2.87,6.39-5.85,9.58-8.79,1.01-1.39,2.02-2.79,3.03-4.18.97-1.74,1.93-3.47,2.9-5.21l.02-.04c.86-1.69,1.71-3.38,2.57-5.07.18-.63.35-1.27.53-1.9.56-1.38,1.13-2.75,1.69-4.13.82-7.22,1.86-14.41,2.39-21.65.72-9.79-1.11-19.26-6.24-27.64-3.89-6.35-8.77-12.09-13.2-18.1Zm-14.38,89.97c-.11-.29-.16-.73-.35-.81.2.09.24.53.36.81,0,0,0,0,0,0Zm22.32-41.71c-.21,2.02-.42,4.04-.64,6.06.02,1,.04,2.01.06,3.01-1.02,2.73-2.03,5.45-3.05,8.18-2.63,7.62-5.62,11.06-19.22,21.73v-8.69c-.36,0-.73,0-1.09,0,.35-2.77.7-5.54,1.05-8.3-.14-1.2-.27-2.41-.41-3.61,0-14.29,0-28.58,0-42.87-.45.74-1.08,1.48-1.6,2.22.52-.74,1.15-1.47,1.6-2.22,0-2.29,0-4.58-.01-6.87.31-2.24.61-4.49.98-7.13,1.67.56,2.99,1,4.31,1.44.33.24.67.48,1,.71,1.75,1.63,3.49,3.25,5.24,4.88,2,2.4,4,4.79,5.99,7.19h0c1.75,5.03,3.5,10.05,5.25,15.07l.54,5.13c0,1.35,0,2.71-.01,4.06Z"/>
        <path class="cls-2" d="m687.84,82.06c.06-.94.12-1.87.17-2.81.15-1.09.29-2.19.44-3.28-.69-1.35-1.38-2.7-2.07-4.05-.05-1.31-.11-2.62-.16-3.93-.31-.36-.62-.72-.94-1.07-2.28-6.46-4.55-12.93-6.83-19.39l-1.02-2.01c0-.26-.05-.5-.17-.73-.63-.07-1.26-.14-1.89-.22-4.73-4.36-9.45-8.72-14.18-13.08-.78-.96-1.57-1.92-2.35-2.87-.57.03-1.14.06-1.7.08-4.43-1.93-8.86-3.87-13.29-5.8-.97-.54-1.93-1.07-2.9-1.61-2.01-.34-4.02-.68-6.03-1.02h0c-1.7-.67-3.41-1.34-5.11-2.01-.67.06-1.34.12-2.01.18-1.32-.29-2.64-.59-3.96-.88-7.83,0-15.66,0-23.49,0l-4.99.59c-.16,6.84-.33,13.69-.49,20.53.04,1.28.08,2.55.12,3.83.03.73.06,1.46.08,2.19.01,2,.03,3.99.04,5.99.02,2.18.05,4.37.07,6.55.15-.38.42-.48.79-.32h0c0,2.67-.01,5.33-.02,8l1.42-.07c-.17,2.41-.35,4.82-.52,7.22.05,3.35.11,6.7.16,10.05-.03,7-.07,14.01-.1,21.01.06,11.42.12,22.84.18,34.26.1,3.78.2,7.56.29,11.33.1.41.23.83.36,1.24.13.42.27.83.39,1.25-.13-.41-.26-.83-.39-1.25-.13-.42-.26-.83-.36-1.24-.64.01-1.28.02-1.93.03-.13,2.01-.25,4.02-.38,6.04.28,1.06.56,2.11.84,3.17-.26,7.36-.52,14.73-.79,22.09.14,6.02.24,12.05.43,18.07.06,1.81.37,3.61.56,5.42,3.47.16,6.95.32,10.42.48,2.74.04,5.48.08,8.23.12,3.98.04,7.97.08,11.95.11,2.32-.35,4.63-.71,6.95-1.06-.07-.38-.14-.76-.21-1.14-.13-12.33-.25-24.66-.38-36.99h0c.59-.4,1.18-.79,1.77-1.19.16-.19.36-.28.6-.3.82-.57,1.63-1.13,2.45-1.7,3.73-2.01,7.45-4.02,11.18-6.03.31-.11.63-.16.96-.14.66-.32,1.33-.63,1.99-.95,16.66-9.37,27.96-22.91,32.53-41.7.15-.61.55-1.15.84-1.73h0c.42-.31.84-.61,1.26-.92.39-.87.78-1.74,1.16-2.61.06-.52.12-1.05.19-1.57.14-1,.28-2,.43-2.99-.05-2.07-.1-4.14-.16-6.2-.15-5-.31-10-.46-15Zm-16.22,13.25c-.25,1.97-.51,3.94-.76,5.91.08.36.16.72.24,1.08-1.99,12.03-7.9,22.02-16.17,30.73-1.21,1.28-2.81,2.19-4.23,3.27-2.19,1.48-4.38,2.96-6.57,4.45-7.08,2.57-14.16,5.13-21.24,7.7-3.93-.88-5.6.78-5.41,4.7.07,1.49-.1,2.98-.16,4.48.11,5.8.23,11.6.34,17.4,1.03,4.49,2.59,9.01-.88,13.2,0,0-.1-.27-.1-.27l-.28.04c-.42.86-.84,1.71-1.26,2.57-.84-1.22-2.26-2.37-2.42-3.67-.45-3.58-.36-7.22-.49-10.84.01-.99.02-1.98.03-2.97.14-9.12.28-18.25.42-27.37-.87-.16-1.74-.32-2.61-.48-.03-.26-.07-.52-.1-.77.9-.25,1.8-.51,2.7-.76,0-3.71,0-7.41.01-11.12.2-4.35.41-8.69.61-13.04.05-17.6.1-35.19.15-52.79-.3-6.02-.6-12.04-.91-18.06-.1-5.05-.19-10.1-.29-15.16.16-1.67.32-3.35.48-5.02,1.01-.06,2.01-.12,3.02-.18,9.32-.38,18.66-.85,27.13,4.23h0c1.72.99,3.45,1.98,5.17,2.97,1.04,1,2.09,2,3.13,2.99,1.31.7,2.62,1.39,3.93,2.09,1.35,1.37,2.7,2.74,4.05,4.1l1,.95c2.76,5.04,5.52,10.08,8.28,15.13,0,0,0,0,0,0-.02.34-.04.69-.06,1.03.59,1.71,1.19,3.41,1.78,5.12.07,1.97.13,3.94.2,5.92.16.38.33.75.49,1.12.22,1.31.43,2.62.65,3.93.58.87,1.7,1.79,1.64,2.61-.35,4.94-.98,9.85-1.51,14.78Z"/>
      </g>
      <g>
        <path class="cls-2" d="m192.74,178.68c.51,0,1.01,0,1.52-.01-.7-.73-1.41-1.46-2.11-2.19-.03.5-.06,1.01-.09,1.51l.68.7Z"/>
        <path class="cls-2" d="m239.8,111.02l1.43-2.34c.56-1.23,1.11-2.46,1.67-3.69.68-1.36,1.35-2.71,2.03-4.07.3-.56.6-1.12.91-1.69.24-.96.47-1.92.71-2.88.82-4.27,1.85-8.5,2.39-12.8.73-5.79-1.47-10.9-4.41-15.73-.55-.79-1.1-1.58-1.65-2.36-.57-.99-1.15-1.98-1.72-2.97l-3.69-3.91c-.06-.24-.06-.47-.02-.71-.48-.53-.97-1.06-1.45-1.59,0,0-.05-.05-.05-.05-.6-.45-1.21-.89-1.81-1.34-.23.06-.4,0-.53-.2-2.06-1.01-4.12-2.02-6.17-3.02-.52-.18-1.04-.37-1.56-.55-.96-.42-1.93-.84-2.89-1.25-.08-.41-.16-.82-.24-1.23-1.63-.09-3.26-.19-4.88-.28-.42.09-.84.18-1.26.27-2.45-.07-4.89-.14-7.34-.21-.58-.19-1.16-.37-1.74-.56,0,.8-.01,1.6-.02,2.4-.02,20.76-.05,41.51-.04,62.27,0,4.09.16,8.18.24,12.27,4-.18,8-.36,12-.55,2.6-1,5.21-2,7.81-3.01,2.84-1.86,5.69-3.72,8.53-5.58.71-.82,1.42-1.64,2.12-2.46.55-.72,1.1-1.45,1.65-2.17Zm-8.73-54.58l-3.58-.41h0c1.19.14,2.39.27,3.58.41Zm-2.15,12.99c-.29-1.03-1.38-2.4-2.78-3.69,1.4,1.29,2.49,2.66,2.78,3.69Zm-2.87-3.77c-.21-.19-.42-.38-.64-.56.22.18.43.37.64.56Zm-.8-.69c-.2-.16-.39-.33-.6-.48.2.16.4.32.6.48Zm-.79-.63c-.19-.15-.39-.29-.59-.43.2.14.39.29.59.43Zm-.79-.57c-.2-.14-.39-.27-.59-.4.2.12.39.26.59.4Zm-.83-.54c-.18-.11-.36-.22-.54-.32.18.1.36.21.54.32Zm-.97-.54c-.11-.06-.23-.12-.34-.18.11.05.23.12.34.18Zm-.74-.35c-.11-.05-.22-.1-.33-.14.11.04.22.1.33.14Zm-.77-.28c-.08-.03-.17-.06-.25-.08.08.02.17.05.25.08Zm-6.75,30.68c-.33-.48-.74-.95-1.02-1.43h0c.28.48.69.96,1.02,1.43Zm15.97,6.69c.14,4.24-3.82,5.31-6,7.75-1.04.71-2.08,1.43-3.11,2.14-.7-.29-1.99-.57-1.99-.87-.02-1.46.31-2.92.51-4.38-.1-.46-.2-.92-.3-1.39-1.8-.86-1.82-1.73-.01-2.6.09-4.06.18-8.12.27-12.19-.23-2.82-.46-5.64-.69-8.46.17-4.65.34-9.29.52-13.94.04-.67.08-1.35.15-2.7,2.08,1.4,3.68,2.49,5.29,3.57,1.57,1.03,3.14,2.06,4.71,3.09.23.29.46.58.69.87.29.03.57.06.86.09,7.62,6.37,7.45,18.69,1.68,25.29-.86,1.24-1.72,2.49-2.58,3.73Z"/>
        <path class="cls-2" d="m264.47,166.43s0,0,0,0c-.52-1.3-1.04-2.6-1.56-3.91-.97,1.89-1.38,3.57,1.55,3.9h0c-2.93-.34-2.52-2.01-1.55-3.9.03-.24-.02-.47-.15-.68-1.3-3.33-2.6-6.67-3.9-10,.01-.26.02-.52.03-.79h0c-.8-1.77-1.6-3.54-2.41-5.31h0c-.21-1.1-.41-2.21-.62-3.31-.34-1.05-.68-2.1-1.02-3.15-.1-.49-.2-.97-.3-1.46-.4-1.1-.79-2.19-1.19-3.29-.08-.94-.16-1.88-.24-2.82,0,0-.12.2-.12.2l-.22-.07-1.54-3.91c.05-.53.1-1.07.14-1.6-.15-.91-.29-1.82-.44-2.72-.6-1.61-1.2-3.22-1.8-4.84.24-.52.47-1.05.71-1.57,1.28-1,2.56-1.99,3.84-2.99,6.83-6.59,11.11-14.48,12.31-23.96.11-.33.23-.66.34-.99-.04-3.45-.07-6.91-.11-10.36-.5-2.21-.99-4.43-1.49-6.64-1.7-8.45-5.81-15.56-12.25-21.25-3.67-3.24-7.58-6.2-11.38-9.29-2.52-1.37-5.04-2.73-7.56-4.1-9.53-.01-19.05-.03-28.58-.04-2.47.28-4.95.5-7.41.85-1.73.24-3.44.65-5.16.99.07,1.9.18,3.8.21,5.7.09,5.55.16,11.1.23,16.65,0,0,0,0,0,0-.03,1.79-.06,3.57-.09,5.36h0c-.21,1.48-.59,2.95-.62,4.43-.22,11.63-.37,23.26-.54,34.89.21-.04.42-.08.63-.1,0,.25,0,.5-.01.75-.22,4.64-.43,9.28-.65,13.92,0,2.82,0,5.64,0,8.46,0,2.06,0,4.12,0,6.18.1,1.64.28,3.28.29,4.92.1,11.96.17,23.93.25,35.89.7.73,1.41,1.46,2.11,2.19.51,0,1.03,0,1.54,0,1.28.01,2.56.03,3.84.04.04-.47.08-.94.11-1.41,0,0,0,0,0,0,1.02.38,2.04.76,3.07,1.15,2.79-.18,5.58-.37,8.37-.55,1.56-2.28,3.47-1.68,5.43-.66,1.34-.35,2.67-.71,4.01-1.06.41-.93.82-1.85,1.23-2.78.19-2.12.39-4.23.58-6.35-.09-.46-.18-.92-.27-1.38-.38-.25-.77-.5-1.15-.75-.19-.89-.38-1.78-.57-2.67,0-.39-.01-.77-.02-1.16-.83-2.57-1.66-5.15-2.49-7.72,0-.77,0-1.54,0-2.32,1.37-2.8,2.74-5.61,4.1-8.41,1.9,0,4.34-1.09,4.56,2.27.61,1.46,1.09,2.98,1.85,4.36,1.9,3.45,3.93,6.84,5.91,10.25h0c.47,1.05.95,2.09,1.42,3.14.25.51.51,1.03.76,1.54,1.13,2.77,2.27,5.54,3.4,8.31l1.58.8c1.31,5.27,2.53,6.42,6.88,6.47.46-.23.92-.45,1.38-.68.45-.16.9-.32,1.35-.49.28-.08.56-.15.84-.23,4.44-1.57,8.88-3.13,13.32-4.69,0,0,0,0,0,0,.43-.13.85-.27,1.28-.4-.7-2.29-1.41-4.58-2.11-6.86Zm-58.04,2.23c.18-.07.36-.15.54-.24-.18.09-.36.17-.54.24Zm1.35-.6c-.18.07-.36.15-.54.24.18-.09.36-.17.54-.24.09-.03.18-.06.26-.09.06-.11.12-.22.18-.33-.06.11-.12.22-.18.33-.09.03-.17.06-.26.09Zm43.39.34c-.76-.64-1.85-1.12-2.24-1.94-1.69-3.54-3.17-7.18-4.73-10.78-.2-.51-.39-1.03-.59-1.54-1.59-4.63-3.18-9.26-4.77-13.88l-.6-.85c-.99-2.81-1.99-5.62-2.98-8.44-.62-2.04-1.25-4.08-1.87-6.12-.2-.2-.41-.4-.61-.6l.1-.27c-.53.04-1.07.08-1.6.12,0-.31.02-.62.03-.93-.78.03-1.56.06-2.34.09-.29.52-.58,1.04-.88,1.56h0c-1.77.32-3.53.64-5.3.95-1.17.43-2.34.85-3.5,1.28h0c1.17-.43,2.34-.85,3.5-1.28-1.02.22-2.05.43-3.07.65-.16.2-.31.41-.43.63,0,0-.19-.09-.19-.09l-.16.15c-.72.44-1.44.88-2.17,1.32-.88-.07-1.76-.14-2.65-.21-.7.18-1.41.36-2.11.54,0,.26,0,.53,0,.79-1.06.48-2.11.95-3.17,1.43,0,0-.08-.09-.08-.09h0c-.49,0-.98,0-1.48.01.06.82.12,1.64.18,2.47h0c.06,7.95.11,15.89.17,23.84-.04.5-.08.99-.12,1.49-.31,2.57-.63,5.13-.94,7.7l-2.27.78.04-1.51c-.18-.84-.51-1.67-.51-2.51-.01-36.47,0-72.93.02-109.4,0-.63.13-1.27.2-1.9-.22-1.09-.43-2.19-.65-3.28.4-.72.8-1.43,1.2-2.15,0,0,0,0,0,0-.4.72-.8,1.43-1.2,2.15.31,0,.61.01.92.02-.04-.24-.03-.48.03-.72.16-.29.32-.57.48-.86.11-.26.04-.46-.22-.59.68-.14,1.36-.28,2.04-.41l-.26.16.09.3c5.2.15,10.39.31,15.59.46.77.26,1.53.52,2.3.78,3.08,1.29,6.16,2.58,9.24,3.87,7.09,3.89,13.56,8.34,15.45,16.96.57,1.1,1.13,2.21,1.7,3.31.42,2.01.84,4.01,1.26,6.02.21.54.42,1.08.63,1.62.05,3.79.1,7.59.15,11.38.17,2.4.62,4.89-2.13,6.3-.57,2.03-1.13,4.07-1.7,6.1-.26.51-.52,1.02-.79,1.53l.02-.02c-.96,1.3-1.92,2.6-2.88,3.9h0c-.6.76-1.21,1.53-1.81,2.29-.73,1.04-1.47,2.08-2.2,3.12-.28.46-.56.92-.83,1.37h0c-.49.08-.97.16-1.46.24,0,.48,0,.96-.01,1.44-.43.15-.85.31-1.28.46-.13.6-.27,1.21-.4,1.81,0,.79-.02,1.58-.03,2.38.09,2.03.18,4.07.26,6.1.16.53.33,1.06.49,1.6.85,2.31,1.73,4.61,2.55,6.92,1.09,3.06,2.13,6.15,3.19,9.22.46.77.92,1.54,1.38,2.31.97,2.69,1.95,5.37,2.92,8.06,1.16,3.23,2.39,6.45,3.42,9.73.24.77-.21,1.76-.34,2.65Z"/>
        <path class="cls-2" d="m220.73,162.18s-.29.07-.29.07c.19.89.38,1.78.57,2.67.11-.75.22-1.49.33-2.24-.21-.17-.41-.34-.62-.51Z"/>
      </g>
      <g>
        <path class="cls-2" d="m773.29,182.71c.51,0,1.01,0,1.52-.01-.7-.73-1.41-1.46-2.11-2.19-.03.5-.06,1.01-.09,1.51l.68.7Z"/>
        <path class="cls-2" d="m820.35,115.05l1.43-2.34c.56-1.23,1.11-2.46,1.67-3.69.68-1.36,1.35-2.71,2.03-4.07.3-.56.6-1.12.91-1.69.24-.96.47-1.92.71-2.88.82-4.27,1.85-8.5,2.39-12.8.73-5.79-1.47-10.9-4.41-15.73-.55-.79-1.1-1.58-1.65-2.36-.57-.99-1.15-1.98-1.72-2.97-1.23-1.3-2.46-2.61-3.69-3.91-.06-.24-.06-.47-.02-.71-.48-.53-.97-1.06-1.45-1.59,0,0-.05-.05-.05-.05-.6-.45-1.21-.89-1.81-1.34-.23.06-.4,0-.53-.2-2.06-1.01-4.12-2.02-6.17-3.02-.52-.18-1.04-.37-1.56-.55-.96-.42-1.93-.84-2.89-1.25-.08-.41-.16-.82-.24-1.23-1.63-.09-3.26-.19-4.88-.28-.42.09-.84.18-1.26.27-2.45-.07-4.89-.14-7.34-.21-.58-.19-1.16-.37-1.74-.56,0,.8-.01,1.6-.02,2.4-.02,20.76-.05,41.51-.04,62.27,0,4.09.16,8.18.24,12.27,4-.18,8-.36,12-.55,2.6-1,5.21-2,7.81-3.01,2.84-1.86,5.69-3.72,8.53-5.58.71-.82,1.42-1.64,2.12-2.46.55-.72,1.1-1.45,1.65-2.17Zm-8.73-54.58l-3.58-.41h0c1.19.14,2.39.27,3.58.41Zm-2.15,12.99c-.29-1.03-1.38-2.4-2.78-3.69,1.4,1.29,2.49,2.66,2.78,3.69Zm-2.87-3.77c-.21-.19-.42-.38-.64-.56.22.18.43.37.64.56Zm-.8-.69c-.2-.16-.39-.33-.6-.48.2.16.4.32.6.48Zm-.79-.63c-.19-.15-.39-.29-.59-.43.2.14.39.29.59.43Zm-.79-.57c-.2-.14-.39-.27-.59-.4.2.12.39.26.59.4Zm-.83-.54c-.18-.11-.36-.22-.54-.32.18.1.36.21.54.32Zm-.97-.54c-.11-.06-.23-.12-.34-.18.11.05.23.12.34.18Zm-.74-.35c-.11-.05-.22-.1-.33-.14.11.04.22.1.33.14Zm-.77-.28c-.08-.03-.17-.06-.25-.08.08.02.17.05.25.08Zm-6.75,30.68c-.33-.48-.74-.95-1.02-1.43h0c.28.48.69.96,1.02,1.43Zm15.97,6.69c.14,4.24-3.82,5.31-6,7.75-1.04.71-2.08,1.43-3.11,2.14-.7-.29-1.99-.57-1.99-.87-.02-1.46.31-2.92.51-4.38-.1-.46-.2-.92-.3-1.39-1.8-.86-1.82-1.73-.01-2.6.09-4.06.18-8.12.27-12.19-.23-2.82-.46-5.64-.69-8.46.17-4.65.34-9.29.52-13.94.04-.67.08-1.35.15-2.7,2.08,1.4,3.68,2.49,5.29,3.57,1.57,1.03,3.14,2.06,4.71,3.09.23.29.46.58.69.87.29.03.57.06.86.09,7.62,6.37,7.45,18.69,1.68,25.29-.86,1.24-1.72,2.49-2.58,3.73Z"/>
        <path class="cls-2" d="m845.02,170.45s0,0,0,0c-.52-1.3-1.04-2.6-1.56-3.91-.97,1.89-1.38,3.57,1.55,3.9h0c-2.93-.34-2.52-2.01-1.55-3.9.03-.24-.02-.47-.15-.68-1.3-3.33-2.6-6.67-3.9-10,.01-.26.02-.52.03-.79h0c-.8-1.77-1.6-3.54-2.41-5.31h0c-.21-1.1-.41-2.21-.62-3.31-.34-1.05-.68-2.1-1.02-3.15-.1-.49-.2-.97-.3-1.46-.4-1.1-.79-2.19-1.19-3.29-.08-.94-.16-1.88-.24-2.82,0,0-.12.2-.12.2l-.22-.07-1.54-3.91c.05-.53.1-1.07.14-1.6-.15-.91-.29-1.82-.44-2.72-.6-1.61-1.2-3.22-1.8-4.84.24-.52.47-1.05.71-1.57,1.28-1,2.56-1.99,3.84-2.99,6.83-6.59,11.11-14.48,12.31-23.96.11-.33.23-.66.34-.99-.04-3.45-.07-6.91-.11-10.36-.5-2.21-.99-4.43-1.49-6.64-1.7-8.45-5.81-15.56-12.25-21.25-3.67-3.24-7.58-6.2-11.38-9.29-2.52-1.37-5.04-2.73-7.56-4.1-9.53-.01-19.05-.03-28.58-.04-2.47.28-4.95.5-7.41.85-1.73.24-3.44.65-5.16.99.07,1.9.18,3.8.21,5.7.09,5.55.16,11.1.23,16.65,0,0,0,0,0,0-.03,1.79-.06,3.57-.09,5.36h0c-.21,1.48-.59,2.95-.62,4.43-.22,11.63-.37,23.26-.54,34.89.21-.04.42-.08.63-.1,0,.25,0,.5-.01.75-.22,4.64-.43,9.28-.65,13.92,0,2.82,0,5.64,0,8.46,0,2.06,0,4.12,0,6.18.1,1.64.28,3.28.29,4.92.1,11.96.17,23.93.25,35.89.7.73,1.41,1.46,2.11,2.19.51,0,1.03,0,1.54,0,1.28.01,2.56.03,3.84.04.04-.47.08-.94.11-1.41,0,0,0,0,0,0,1.02.38,2.04.76,3.07,1.15,2.79-.18,5.58-.37,8.37-.55,1.56-2.28,3.47-1.68,5.43-.66,1.34-.35,2.67-.71,4.01-1.06.41-.93.82-1.85,1.23-2.78.19-2.12.39-4.23.58-6.35-.09-.46-.18-.92-.27-1.38-.38-.25-.77-.5-1.15-.75-.19-.89-.38-1.78-.57-2.67,0-.39-.01-.77-.02-1.16-.83-2.57-1.66-5.15-2.49-7.72,0-.77,0-1.54,0-2.32,1.37-2.8,2.74-5.61,4.1-8.41,1.9,0,4.34-1.09,4.56,2.27.61,1.46,1.09,2.98,1.85,4.36,1.9,3.45,3.93,6.84,5.91,10.25h0c.47,1.05.95,2.09,1.42,3.14.25.51.51,1.03.76,1.54,1.13,2.77,2.27,5.54,3.4,8.31l1.58.8c1.31,5.27,2.53,6.42,6.88,6.47.46-.23.92-.45,1.38-.68.45-.16.9-.32,1.35-.49.28-.08.56-.15.84-.23,4.44-1.57,8.88-3.13,13.32-4.69,0,0,0,0,0,0,.43-.13.85-.27,1.28-.4-.7-2.29-1.41-4.58-2.11-6.86Zm-58.04,2.23c.18-.07.36-.15.54-.24-.18.09-.36.17-.54.24Zm1.35-.6c-.18.07-.36.15-.54.24.18-.09.36-.17.54-.24.09-.03.18-.06.26-.09.06-.11.12-.22.18-.33-.06.11-.12.22-.18.33-.09.03-.17.06-.26.09Zm43.39.34c-.76-.64-1.85-1.12-2.24-1.94-1.69-3.54-3.17-7.18-4.73-10.78-.2-.51-.39-1.03-.59-1.54-1.59-4.63-3.18-9.26-4.77-13.88l-.6-.85c-.99-2.81-1.99-5.62-2.98-8.44-.62-2.04-1.25-4.08-1.87-6.12-.2-.2-.41-.4-.61-.6l.1-.27c-.53.04-1.07.08-1.6.12,0-.31.02-.62.03-.93-.78.03-1.56.06-2.34.09-.29.52-.58,1.04-.88,1.56h0c-1.77.32-3.53.64-5.3.95-1.17.43-2.34.85-3.5,1.28h0c1.17-.43,2.34-.85,3.5-1.28-1.02.22-2.05.43-3.07.65-.16.2-.31.41-.43.63,0,0-.19-.09-.19-.09l-.16.15c-.72.44-1.44.88-2.17,1.32-.88-.07-1.76-.14-2.65-.21-.7.18-1.41.36-2.11.54,0,.26,0,.53,0,.79-1.06.48-2.11.95-3.17,1.43,0,0-.08-.09-.08-.09h0c-.49,0-.98,0-1.48.01.06.82.12,1.64.18,2.47h0c.06,7.95.11,15.89.17,23.84-.04.5-.08.99-.12,1.49-.31,2.57-.63,5.13-.94,7.7l-2.27.78.04-1.51c-.18-.84-.51-1.67-.51-2.51-.01-36.47,0-72.93.02-109.4,0-.63.13-1.27.2-1.9-.22-1.09-.43-2.19-.65-3.28.4-.72.8-1.43,1.2-2.15,0,0,0,0,0,0-.4.72-.8,1.43-1.2,2.15.31,0,.61.01.92.02-.04-.24-.03-.48.03-.72.16-.29.32-.57.48-.86.11-.26.04-.46-.22-.59.68-.14,1.36-.28,2.04-.41l-.26.16.09.3c5.2.15,10.39.31,15.59.46.77.26,1.53.52,2.3.78l9.24,3.87c7.09,3.89,13.56,8.34,15.45,16.96.57,1.1,1.13,2.21,1.7,3.31.42,2.01.84,4.01,1.26,6.02.21.54.42,1.08.63,1.62.05,3.79.1,7.59.15,11.38.17,2.4.62,4.89-2.13,6.3-.57,2.03-1.13,4.07-1.7,6.1-.26.51-.52,1.02-.79,1.53l.02-.02c-.96,1.3-1.92,2.6-2.88,3.9h0c-.6.76-1.21,1.53-1.81,2.29-.73,1.04-1.47,2.08-2.2,3.12-.28.46-.56.92-.83,1.37h0c-.49.08-.97.16-1.46.24,0,.48,0,.96-.01,1.44-.43.15-.85.31-1.28.46-.13.6-.27,1.21-.4,1.81,0,.79-.02,1.58-.03,2.38.09,2.03.18,4.07.26,6.1.16.53.33,1.06.49,1.6.85,2.31,1.73,4.61,2.55,6.92,1.09,3.06,2.13,6.15,3.19,9.22.46.77.92,1.54,1.38,2.31.97,2.69,1.95,5.37,2.92,8.06,1.16,3.23,2.39,6.45,3.42,9.73.24.77-.21,1.76-.34,2.65Z"/>
        <path class="cls-2" d="m801.28,166.2s-.29.07-.29.07c.19.89.38,1.78.57,2.67.11-.75.22-1.49.33-2.24-.21-.17-.41-.34-.62-.51Z"/>
      </g>
    </g>
    <g>
      <path class="cls-1" d="m305.3,115.21c-.12-.18-.25-.38-.36-.59h0c.12.21.24.41.36.59Z"/>
      <path class="cls-1" d="m346.73,157.49c-.98-5.6-1.96-11.2-2.95-16.81-.54-3.5-1.04-7.01-1.69-10.49-.07-.39-1.01-.62-1.54-.92,0-.55,0-1.11,0-1.66-.25-1.61-.5-3.22-.75-4.82-.53-3.82-.91-7.67-1.62-11.45-1.54-8.11-3.25-16.18-4.88-24.27-.6-4.48-1.15-8.97-1.83-13.44-.44-2.91-.93-5.84-1.68-8.68-.3-1.16-1.33-2.13-2.03-3.19-.71-5.25-1.41-10.5-2.12-15.74-.34-.7-.69-1.4-1.03-2.1-6.57.03-13.14.05-19.71.08-.55.22-1.11.44-1.66.66-.19.34-.39.67-.58,1.01h0c-.4,1.56-.96,3.09-1.16,4.67-.81,6.24-1.52,12.5-2.26,18.75.62-.57,1.57-1.06,1.75-1.74,1.7-6.66,3.26-13.36,4.85-20.05,0-.55-.01-1.09-.02-1.64.8.06,1.6.12,2.41.17.49,0,.98,0,1.47,0,3.08-.06,6.16-.23,9.23-.13.87.03,1.72.82,2.58,1.26,1.51,4.25,3.12,8.47,4.49,12.77.45,1.4.28,2.98.4,4.49,1.76,8.69,3.51,17.38,5.27,26.08,1.28,7.93,2.58,15.86,3.83,23.8.43,2.74.97,5.51.97,8.26,0,.93-1.54,1.85-2.38,2.78-8.11.21-16.22.43-24.33.64-2.06.36-4.11.82-6.19,1.03-1.98.2-3.98.14-5.97.19-2.36-.38-4.72-.73-7.05-1.21-.22-.05-.28-.91-.41-1.4-.03-1.1-.06-2.19-.08-3.29.42-1.64.84-3.29,1.27-4.93.11-1.03.21-2.07.32-3.1,2-10.05,4.11-20.09,5.95-30.17.82-4.49,1.08-9.09,1.59-13.64-.84.92-2.09,1.73-2.38,2.8-1.14,4.2-2.01,8.48-2.88,12.75-1.49,7.24-2.91,14.5-4.36,21.75-.06,1.21.04,2.46-.21,3.63-2.82,13.23-5.74,26.43-8.53,39.66-1.1,5.22-1.97,10.48-2.95,15.73.47.24.94.49,1.41.73.96-.93,2.57-1.74,2.78-2.82,1.84-9.46,3.44-18.98,5.1-28.48.43-1.46.86-2.91,1.3-4.37,1.46-.44,2.9-1.14,4.39-1.28,3.19-.3,6.41-.32,9.62-.46,11.64.01,23.28.03,34.92.04.83.35,1.66.7,2.49,1.05.01,3.12-.21,6.27.12,9.36.21,1.97,1.24,3.86,1.9,5.78-.05,2.12-.41,4.3-.07,6.36.79,4.8,1.91,9.55,2.9,14.32.3.52.61,1.03.91,1.55.19.13.36.26.53.41.65-.05,1.3-.11,1.95-.16-.31-2.76-.62-5.52-.93-8.29-.15-.61-.3-1.21-.46-1.82Z"/>
      <path class="cls-1" d="m248.09,156.03c-.97-2.69-1.95-5.37-2.92-8.06-.46-.77-.92-1.54-1.38-2.31-1.06-3.07-2.1-6.15-3.19-9.22-.82-2.32-1.7-4.62-2.55-6.92-.16-.53-.33-1.06-.49-1.6-.09-2.03-.18-4.07-.26-6.1,0-.79.02-1.58.03-2.38.14-.6.27-1.21.4-1.81.43-.15.85-.31,1.28-.46,0-.48,0-.96.01-1.44.49-.08.97-.16,1.46-.24.28-.46.56-.92.83-1.38.73-1.04,1.47-2.08,2.2-3.12.6-.76,1.21-1.53,1.81-2.29h0c.96-1.3,1.92-2.6,2.88-3.9l-.02.02c.26-.51.52-1.02.79-1.53.57-2.03,1.13-4.07,1.7-6.1,2.75-1.41,2.3-3.9,2.13-6.3-.05-3.79-.1-7.59-.15-11.38-.21-.54-.42-1.08-.63-1.62-.42-2.01-.84-4.01-1.26-6.02-.57-1.1-1.13-2.21-1.7-3.31-1.89-8.62-8.36-13.07-15.45-16.96-3.08-1.29-6.16-2.58-9.24-3.87-.77-.26-1.53-.52-2.3-.78-5.2-.15-10.39-.31-15.59-.46l-.09-.3.26-.16c-.68.14-1.36.28-2.04.41.25.13.33.33.22.59-.16.29-.32.57-.48.86-.06.24-.07.48-.03.72-.31,0-.61-.01-.92-.02.22,1.09.43,2.19.65,3.28-.07.63-.2,1.27-.2,1.9-.02,36.47-.04,72.93-.02,109.4,0,.84.33,1.67.51,2.51-.01.5-.03,1.01-.04,1.51.76-.26,1.51-.52,2.27-.78.31-2.57.63-5.13.94-7.7.04-.5.08-.99.12-1.49-.06-7.95-.11-15.89-.17-23.84-.06-.82-.12-1.64-.18-2.47.49,0,.98,0,1.48-.01h0s.08.09.08.09c1.06-.48,2.11-.95,3.17-1.43,0-.26,0-.53,0-.79.7-.18,1.41-.36,2.11-.54.88.07,1.76.14,2.65.21.72-.44,1.44-.88,2.17-1.32l.16-.15s.19.09.19.09c.12-.22.27-.43.43-.63,1.03-.22,2.05-.43,3.07-.65,1.77-.32,3.53-.64,5.3-.95h0c.29-.52.58-1.04.88-1.56.78-.03,1.56-.06,2.34-.09,0,.31-.02.62-.03.93.53-.04,1.07-.08,1.6-.12l-.1.27c.2.2.41.4.61.6.62,2.04,1.25,4.08,1.87,6.12.99,2.81,1.99,5.62,2.98,8.44.2.28.4.57.6.85,1.59,4.63,3.18,9.26,4.77,13.88.2.51.39,1.03.59,1.54,1.56,3.6,3.04,7.24,4.73,10.78.39.82,1.47,1.3,2.24,1.94.13-.89.58-1.88.33-2.65-1.03-3.28-2.25-6.49-3.42-9.73Zm-20.59-34.8c-2.6,1-5.21,2-7.81,3.01-4,.18-8,.36-11.99.55-.08-4.09-.24-8.18-.24-12.27,0-20.76.02-41.51.04-62.27,0-.8.01-1.6.02-2.4.58.19,1.16.37,1.74.56,2.45.07,4.89.14,7.34.21.42-.09.84-.18,1.26-.27,1.63.09,3.26.19,4.88.28.08.41.16.82.24,1.23.97.42,1.93.84,2.9,1.25.52.18,1.04.37,1.56.55,2.06,1.01,4.12,2.02,6.17,3.02.13.2.3.26.53.2.6.45,1.21.89,1.81,1.34,0,0,.05.05.05.05.48.53.97,1.06,1.45,1.59-.04.24-.04.48.02.71,1.23,1.3,2.46,2.61,3.69,3.91.57.99,1.15,1.98,1.72,2.97.55.79,1.1,1.58,1.65,2.36,2.94,4.84,5.14,9.95,4.41,15.73-.54,4.3-1.58,8.54-2.39,12.8-.24.96-.47,1.92-.71,2.88-.3.56-.6,1.12-.91,1.69-.68,1.36-1.35,2.71-2.03,4.07-.56,1.23-1.11,2.46-1.67,3.69-.48.78-.96,1.56-1.43,2.34-.55.72-1.1,1.45-1.65,2.17-.71.82-1.42,1.64-2.12,2.46-2.84,1.86-5.69,3.72-8.53,5.58Z"/>
      <path class="cls-1" d="m398.83,119.8c-.31-1.06-.62-2.12-.93-3.18.17.22.37.44.57.65-.2-.21-.4-.43-.57-.65-.87-1.38-1.74-2.76-2.61-4.14-.18-.3-.37-.6-.55-.91.02-.26-.05-.49-.21-.7-.24-.54-.49-1.08-.73-1.61-.23-.56-.46-1.11-.7-1.67-.56-1.35-1.11-2.7-1.67-4.05-.67-1.17-1.35-2.35-2.02-3.52-.28-.64-.55-1.29-.83-1.93-.36-.67-.71-1.34-1.07-2.01-.42-.97-.84-1.95-1.26-2.92-.33-.96-.67-1.92-1-2.89-.27-.65-.53-1.29-.8-1.94-.44-1.18-.88-2.36-1.32-3.54-2.21-4.9-1.68-9.79.02-14.68,3.64-6.18,7.03-12.53,11.04-18.47,1.83-2.71,2.67-4.56-1.04-7.6-3.14,4.46-6.14,8.71-9.13,12.96-3.07,3.54-5.22,7.39-4.36,12.32-.24,1.31-.47,2.62-.71,3.93-.47,4.04-.97,8.07-1.34,12.11-.03.35.87.79,1.33,1.18,1.14,2.76,2.08,5.61,3.44,8.25,2.94,5.68,6.09,11.25,9.15,16.86,1.34,2.97,2.68,5.94,4.02,8.92-.16,1.96-.42,3.93-.44,5.89-.02,2.13.17,4.25.28,6.38-.52,3.23-1.05,6.45-1.57,9.68-1.41,2.74-2.59,5.64-4.29,8.19-3.07,4.61-6.25,9.18-9.79,13.44-2.33,2.81-1.4,4.07,1.88,5.71,3.12-4.97,6.25-9.79,9.21-14.73,2.14-3.57,4.03-7.29,6.03-10.94.12-.51.25-1.01.37-1.52,2.69-7.48,1.4-15.23,1.59-22.89Z"/>
      <path class="cls-1" d="m633.27,129.14c.1.17.15.47.23.69,0,0,0,0,0,0-.08-.21-.13-.51-.23-.69Z"/>
      <path class="cls-1" d="m228.67,68.82c-.47-.93-1.39-2.03-2.53-3.08,1.13,1.05,2.06,2.15,2.53,3.08Z"/>
      <path class="cls-1" d="m543.87,172.09c-6.4-8.23-13.55-16-18.96-24.83-3.9-6.39-5.48-14.19-8.1-21.36-.18-.38-.37-.76-.55-1.15-.07-.81-.14-1.61-.2-2.42-.1-.59-.21-1.18-.31-1.77-.02-4.87-.03-9.74-.05-14.61.13-.86.26-1.72.39-2.58,1.98-6.47,3.44-13.15,6.04-19.35,4.26-10.15,11.13-18.64,18.84-26.47,1.36-1.38,2.04-3.44,3.03-5.19-.47-.39-.93-.78-1.4-1.18-1.18.83-2.53,1.49-3.51,2.51-3.01,3.1-5.87,6.34-8.79,9.53-.51.58-1.03,1.15-1.54,1.73-1.2,1.83-2.41,3.65-3.61,5.48-1.2,2.04-2.41,4.09-3.61,6.13-2.66,6.44-6.19,12.68-7.75,19.38-1.75,7.5-3.08,15.58-2.17,23.12,1.45,12.06,5.34,23.78,12.25,34.03,4.95,7.34,10.61,14.19,15.95,21.26.22,2.39,1.42,2.6,3.29,1.51,1.72-1,3.19-1.97.76-3.77Z"/>
      <path class="cls-1" d="m484.28,49.6c-.42.04-.84.07-1.27.11-.23,1.38-.65,2.75-.67,4.13-.22,13.02-.45,26.03-.52,39.05-.06,11.35.1,22.7.16,34.05-.29,1.42-.8,2.84-.82,4.26-.09,7.2-.03,14.41-.05,21.61-.02,6.37-.17,12.74-.07,19.11.02,1.17.94,2.32,1.45,3.48.82-.38,1.65-.75,2.47-1.13.11-.4.3-.8.3-1.19.02-40.03.03-80.07-.02-120.1,0-1.13-.63-2.25-.97-3.38Z"/>
      <path class="cls-1" d="m438.96,111.57c.02-.26-.05-.49-.21-.7-.24-.54-.49-1.08-.73-1.61-.23-.56-.46-1.11-.7-1.67-.56-1.35-1.11-2.7-1.67-4.05-.67-1.17-1.35-2.35-2.02-3.52-.28-.64-.55-1.29-.83-1.93-.36-.67-.71-1.34-1.07-2.01-.42-.97-.84-1.95-1.26-2.92-.33-.96-.66-1.92-1-2.89-.27-.65-.53-1.29-.8-1.94-.44-1.18-.88-2.36-1.32-3.54-2.21-4.9-1.68-9.79.02-14.68,3.64-6.18,7.03-12.53,11.04-18.47,1.83-2.71,2.67-4.56-1.04-7.6-3.14,4.46-6.14,8.71-9.13,12.96-3.07,3.54-5.22,7.39-4.36,12.32-.24,1.31-.47,2.62-.71,3.93-.47,4.04-.97,8.07-1.34,12.11-.03.35.87.79,1.33,1.18,1.14,2.76,2.08,5.61,3.44,8.25,2.94,5.68,6.09,11.25,9.15,16.86,1.34,2.97,2.68,5.94,4.02,8.92-.16,1.96-.42,3.93-.44,5.89-.02,2.13.17,4.25.28,6.38-.52,3.23-1.05,6.45-1.57,9.68-1.41,2.74-2.59,5.64-4.29,8.19-3.07,4.61-6.25,9.18-9.79,13.44-2.33,2.81-1.4,4.07,1.88,5.71,3.12-4.97,6.26-9.79,9.21-14.73,2.14-3.57,4.03-7.29,6.03-10.94.12-.51.25-1.01.37-1.52,2.69-7.48,1.4-15.23,1.59-22.89-.31-1.06-.62-2.12-.93-3.18.17.22.37.44.57.65-.2-.21-.4-.43-.57-.65-.87-1.38-1.74-2.76-2.61-4.14-.18-.3-.37-.6-.55-.91Z"/>
      <path class="cls-1" d="m207.78,168.06c.09-.03.18-.06.26-.09.06-.11.12-.22.18-.33-.06.11-.12.22-.18.33-.09.03-.17.06-.26.09Z"/>
      <path class="cls-1" d="m171.72,174.29c.05.66,0,1.39-.12,2.18-.03.23-.04.46-.02.69-.02-.23-.02-.46.02-.69.12-.79.17-1.52.12-2.18Z"/>
      <path class="cls-1" d="m212.6,91.3c.12.19.26.39.4.58-.14-.19-.29-.39-.4-.58h0Z"/>
      <path class="cls-1" d="m154.57,39.57c-.77,0-1.55,0-2.32,0,.77,0,1.55,0,2.32,0h0Z"/>
      <path class="cls-1" d="m21.92,179.75c4.63-.51,9.25-1.3,13.82-2.24,11.03-2.25,17.53-9.31,18.98-20.39.31-.68.63-1.36.94-2.03,0-5.03,0-10.07,0-15.1-.18-11.19-.32-22.39-.57-33.58-.04-1.67-.57-3.34-.87-5,.21-24.14.44-48.28.61-72.42.02-2.64-.3-5.28-.46-7.92-.99,0-1.98.01-2.97.02.06,26.71.11,53.43.17,80.14-.16,1.74-.47,3.49-.47,5.23,0,16.86.07,33.73.12,50.59-2.65,4.48-4.31,10.45-8.22,13.04-4.48,2.97-10.96,2.91-16.56,4.23-3.37.79-6.71,1.7-10.06,2.56.07.64.14,1.29.21,1.93,1.78.34,3.61,1.13,5.34.94Z"/>
      <path class="cls-1" d="m123.88,109.27c-.19.23-.38.47-.57.7-.34.29-.67.57-1.01.86.34-.29.67-.57,1.01-.86.19-.23.38-.47.57-.7Z"/>
      <path class="cls-1" d="m149.15,43.43h0c-.43.24-.86.49-1.3.73.43-.24.86-.49,1.3-.73h0Z"/>
      <path class="cls-1" d="m176.25,80.69c.01-1.05.02-2.09.04-3.14.41.2.82.4,1.23.6-.41-.2-.82-.4-1.23-.6-.01,1.05-.02,2.09-.04,3.14Z"/>
      <path class="cls-1" d="m173.94,39.57c-.52,0-1.03,0-1.55,0,.52,0,1.03,0,1.55,0h0,0Z"/>
      <path class="cls-1" d="m122.11,140.92c-.5-.87-1.23-1.72-1.73-2.59.5.87,1.23,1.72,1.73,2.59h0Z"/>
      <path class="cls-1" d="m219.28,127.06c1.17-.43,2.34-.85,3.5-1.28-1.17.43-2.34.85-3.5,1.28h0Z"/>
      <path class="cls-1" d="m670.84,73.98c-.16-.38-.32-.75-.49-1.12-.07-1.97-.13-3.94-.2-5.92-.59-1.71-1.19-3.41-1.78-5.12.02-.34.04-.69.06-1.03,0,0,0,0,0,0-2.76-5.04-5.52-10.08-8.28-15.13l-1-.95c-1.35-1.37-2.7-2.74-4.05-4.1-1.31-.7-2.62-1.39-3.93-2.09-1.04-1-2.09-2-3.13-2.99-1.72-.99-3.45-1.98-5.17-2.97h0c-8.47-5.08-17.81-4.61-27.13-4.23-1.01.06-2.01.12-3.02.18-.16,1.67-.32,3.35-.48,5.02.1,5.05.19,10.1.29,15.16.3,6.02.6,12.04.91,18.06-.05,17.6-.1,35.19-.15,52.79-.2,4.35-.41,8.69-.61,13.04,0,3.71,0,7.41-.01,11.12-.9.25-1.8.51-2.7.76.03.26.07.52.1.77.87.16,1.74.32,2.61.48-.14,9.12-.28,18.25-.42,27.37-.01.99-.02,1.98-.03,2.97.13,3.62.05,7.26.49,10.84.16,1.3,1.58,2.45,2.42,3.67.42-.86.84-1.71,1.26-2.57l.28-.04s.1.27.1.27c3.47-4.19,1.91-8.71.88-13.2-.11-5.8-.23-11.6-.34-17.4.06-1.49.23-2.99.16-4.48-.19-3.91,1.48-5.58,5.41-4.7,7.08-2.57,14.16-5.13,21.24-7.7,2.19-1.48,4.38-2.96,6.57-4.45,1.42-1.08,3.02-2,4.23-3.27,8.27-8.72,14.18-18.7,16.17-30.73-.08-.36-.16-.72-.24-1.08.26-1.97.51-3.94.76-5.91.53-4.92,1.16-9.84,1.51-14.78.06-.83-1.06-1.74-1.64-2.61-.22-1.31-.43-2.62-.65-3.93Zm-3.52,11.61c-.53,7.24-1.58,14.44-2.39,21.65-.56,1.38-1.13,2.75-1.69,4.13-.18.63-.35,1.27-.53,1.9-.86,1.69-1.71,3.38-2.57,5.07l-.02.04c-.97,1.74-1.93,3.47-2.9,5.21-1.01,1.39-2.02,2.79-3.03,4.18-3.19,2.94-6.33,5.92-9.58,8.79-1.06.94-2.38,1.58-3.58,2.35-5.07,1.58-10.09,3.42-15.25,4.64-2.54.6-5.34.07-8.03.06-.01-.31-.06-.63-.13-.93-.01-.68-.02-1.35-.04-2.03-.17-5.7-.33-11.4-.5-17.1.18-.98.52-1.95.52-2.93-.05-18.86-.13-37.72-.26-56.58,0-1.11-.48-2.23-.73-3.34.18-9.05.36-18.11.54-27.16,1.49-.89,2.99-1.78,4.48-2.68,3.07.55,6.15,1.1,9.22,1.65,5.68,2.44,11.36,4.88,17.04,7.33,4.44,6.01,9.31,11.75,13.2,18.1,5.14,8.38,6.96,17.85,6.24,27.64Z"/>
      <path class="cls-1" d="m164.25,132.28c-.13-.47-.25-.94-.38-1.41.13-2.84.27-5.68.4-8.52-.1-8.42-.21-16.83-.31-25.25-.02-.61-.04-1.21-.06-1.82-.16-16.51-.32-33.01-.48-49.52-4.06-2.03-2.19,1.97-3.15,3.09,0,.77,0,1.54,0,2.3,0,7.5-.01,14.99-.02,22.49,0,.5,0,1,0,1.5-.07.05-.15.1-.24.14.09-.05.17-.1.24-.14.1,5.91.21,11.83.31,17.74-.44.04-.88.09-1.32.13.45.27.89.54,1.34.8-.06,8.23-.12,16.46-.17,24.69,0,1.29,0,2.58,0,3.87.19,1.8.38,3.6.57,5.39-.15,5.39-.3,10.78-.45,16.16-.34.16-.68.33-1.02.49.15.13.29.26.44.39-.75.81-1.5,1.62-2.25,2.43-2.28,1.82-4.57,3.63-6.85,5.45-2.35,1.87-4.7,3.73-7.06,5.6-.53.17-1.06.34-1.59.51-.62.39-1.25.79-1.87,1.18-2.28.23-4.57.46-6.85.69-.99-.3-1.98-.6-2.97-.9-.55-.24-1.1-.49-1.65-.73-2.53-1.34-5.05-2.68-7.58-4.01-2.19-1.38-4.38-2.76-6.57-4.15,0,0-.21-.26-.21-.26-.07-.65-.13-1.3-.2-1.95-.3-3.35-.61-6.7-.91-10.04,0,0,0,0,0,0-.24-1.29-.48-2.58-.71-3.87-.1-7.98-.2-15.97-.3-23.95.02-5.51.13-11.02.05-16.53-.06-4.05-.37-8.1-.56-12.14-.06-10.79-.12-21.57-.18-32.36,1.6-2.51,1.43-3.57-.74-4.55l.17-.15c-1,0-1.99.02-2.99.02-.15.44-.31.87-.46,1.31-1.46,2.96-2.09,5.88.35,8.68.07,6.17.14,12.34.22,18.51.07,2.85.14,5.7.21,8.55,0,.51.02,1.01.02,1.52,0,1.3,0,2.6,0,3.9.16,3.08.32,6.16.48,9.24.24,5.94.48,11.88.72,17.82.08,4.88.16,9.75.24,14.63.02.56.05,1.13.07,1.69.12,3.21.2,6.42.38,9.63.19,3.51.48,7.01.72,10.51,2.92,2.4,5.84,4.81,8.77,7.21.05.16.16.27.32.31.86.6,1.72,1.19,2.58,1.79,4.41,3.11,8.77,6.46,14.62,3.43,2.59-1.27,5.17-2.54,7.76-3.8,2.37-1.75,4.74-3.49,7.11-5.24,2.82-1.22,5.64-2.44,8.45-3.66,0,.48-.01.95-.02,1.43-1.55,4.26-.81,8.36.86,12.39.66.26,1.32.52,1.98.77.18-.44.36-.88.54-1.32.25-4.46.5-8.92.74-13.39-.12-.48-.24-.96-.36-1.44.16-.55.33-1.11.49-1.66.74-.25,1.29-.58,1.69-.98-.4.4-.95.73-1.69.98-.23-5.21-.47-10.42-.7-15.63Z"/>
      <path class="cls-1" d="m161.41,165.7c.04-.25.09-.51.13-.76-.04.25-.09.51-.13.76,0,0,0,0,0,0Z"/>
      <path class="cls-1" d="m204.61,46.44c-.4.72-.8,1.43-1.2,2.15.4-.72.8-1.43,1.2-2.15,0,0,0,0,0,0Z"/>
      <path class="cls-1" d="m785.16,50.47c-.4.72-.8,1.43-1.2,2.15.4-.72.8-1.43,1.2-2.15,0,0,0,0,0,0Z"/>
      <path class="cls-1" d="m809.19,72.77c-.48-.91-1.39-1.98-2.49-3.01,1.11,1.02,2.01,2.09,2.49,3.01Z"/>
      <path class="cls-1" d="m788.33,172.08c.09-.03.18-.06.26-.09.06-.11.12-.22.18-.33-.06.11-.12.22-.18.33-.09.03-.17.06-.26.09Z"/>
      <path class="cls-1" d="m799.83,131.09c1.17-.43,2.34-.85,3.5-1.28-1.17.43-2.33.85-3.5,1.28h0Z"/>
      <path class="cls-1" d="m911.33,111.57c.02-.26-.05-.49-.21-.7-.24-.54-.49-1.08-.73-1.61-.23-.56-.46-1.11-.7-1.67-.56-1.35-1.11-2.7-1.67-4.05-.67-1.17-1.35-2.35-2.02-3.52-.28-.64-.55-1.29-.83-1.93-.36-.67-.71-1.34-1.07-2.01-.42-.97-.84-1.95-1.26-2.92-.33-.96-.67-1.92-1-2.89-.27-.65-.53-1.29-.8-1.94-.44-1.18-.88-2.36-1.32-3.54-2.21-4.9-1.68-9.79.02-14.68,3.64-6.18,7.03-12.53,11.04-18.47,1.83-2.71,2.67-4.56-1.04-7.6-3.14,4.46-6.14,8.71-9.13,12.96-3.07,3.54-5.22,7.39-4.36,12.32-.24,1.31-.47,2.62-.71,3.93-.47,4.04-.97,8.07-1.34,12.11-.03.35.87.79,1.33,1.18,1.14,2.76,2.08,5.61,3.44,8.25,2.94,5.68,6.09,11.25,9.15,16.86,1.34,2.97,2.68,5.94,4.02,8.92-.16,1.96-.42,3.93-.44,5.89-.02,2.13.17,4.25.28,6.38-.52,3.23-1.05,6.45-1.57,9.68-1.41,2.74-2.59,5.64-4.29,8.19-3.07,4.61-6.25,9.18-9.79,13.44-2.33,2.81-1.4,4.07,1.88,5.71,3.12-4.97,6.26-9.79,9.21-14.73,2.14-3.57,4.03-7.29,6.03-10.94.12-.51.25-1.01.37-1.52,2.69-7.48,1.4-15.23,1.59-22.89-.31-1.06-.62-2.12-.93-3.18.17.22.37.44.57.65-.2-.21-.4-.43-.57-.65-.87-1.38-1.74-2.76-2.61-4.14-.18-.3-.37-.6-.55-.91Z"/>
      <path class="cls-1" d="m865.44,49.6c-.42.04-.84.07-1.27.11-.23,1.38-.65,2.75-.67,4.13-.22,13.02-.45,26.03-.52,39.05-.06,11.35.1,22.7.16,34.05-.29,1.42-.8,2.84-.82,4.26-.09,7.2-.03,14.41-.05,21.61-.02,6.37-.17,12.74-.07,19.11.02,1.17.94,2.32,1.45,3.48.82-.38,1.65-.75,2.47-1.13.11-.4.3-.8.3-1.19.02-40.03.03-80.07-.02-120.1,0-1.13-.63-2.25-.97-3.38Z"/>
      <path class="cls-1" d="m828.64,160.06c-.97-2.69-1.95-5.37-2.92-8.06-.46-.77-.92-1.54-1.38-2.31-1.06-3.07-2.1-6.15-3.19-9.22-.82-2.32-1.7-4.62-2.55-6.92-.16-.53-.33-1.06-.49-1.6-.09-2.03-.18-4.07-.26-6.1,0-.79.02-1.58.03-2.38.14-.6.27-1.21.4-1.81.43-.15.85-.31,1.28-.46,0-.48,0-.96.01-1.44.49-.08.97-.16,1.46-.24.28-.46.56-.92.83-1.38.73-1.04,1.47-2.08,2.2-3.12.6-.76,1.21-1.53,1.81-2.29h0c.96-1.3,1.92-2.6,2.88-3.9l-.02.02c.26-.51.52-1.02.79-1.53.57-2.03,1.13-4.07,1.7-6.1,2.75-1.41,2.3-3.9,2.13-6.3-.05-3.79-.1-7.59-.15-11.38-.21-.54-.42-1.08-.63-1.62-.42-2.01-.84-4.01-1.26-6.02-.57-1.1-1.13-2.21-1.7-3.31-1.89-8.62-8.36-13.07-15.45-16.96-3.08-1.29-6.16-2.58-9.24-3.87-.77-.26-1.53-.52-2.3-.78-5.2-.15-10.39-.31-15.59-.46l-.09-.3.26-.16c-.68.14-1.36.28-2.04.41.25.13.33.33.22.59-.16.29-.32.57-.48.86-.06.24-.07.48-.03.72-.31,0-.61-.01-.92-.02.22,1.09.43,2.19.65,3.28-.07.63-.2,1.27-.2,1.9-.02,36.47-.04,72.93-.02,109.4,0,.84.33,1.67.51,2.51-.01.5-.03,1.01-.04,1.51.76-.26,1.51-.52,2.27-.78.31-2.57.63-5.13.94-7.7.04-.5.08-.99.12-1.49-.06-7.95-.11-15.89-.17-23.84-.06-.82-.12-1.64-.18-2.47.49,0,.98,0,1.48-.01h0s.08.09.08.09c1.06-.48,2.11-.95,3.17-1.43,0-.26,0-.53,0-.79.7-.18,1.41-.36,2.11-.54.88.07,1.76.14,2.65.21.72-.44,1.44-.88,2.17-1.32l.16-.15s.19.09.19.09c.12-.22.27-.43.43-.63,1.02-.22,2.05-.43,3.07-.65,1.77-.32,3.53-.64,5.3-.95h0c.29-.52.58-1.04.88-1.56.78-.03,1.56-.06,2.34-.09,0,.31-.02.62-.03.93.53-.04,1.07-.08,1.6-.12l-.1.27c.2.2.41.4.61.6.62,2.04,1.25,4.08,1.87,6.12.99,2.81,1.99,5.62,2.98,8.44.2.28.4.57.6.85,1.59,4.63,3.18,9.26,4.77,13.88.2.51.39,1.03.59,1.54,1.56,3.6,3.04,7.24,4.73,10.78.39.82,1.47,1.3,2.24,1.94.13-.89.58-1.88.34-2.65-1.03-3.28-2.25-6.49-3.42-9.73Zm-20.59-34.8c-2.6,1-5.21,2-7.81,3.01-4,.18-8,.36-11.99.55-.08-4.09-.24-8.18-.24-12.27,0-20.76.02-41.51.04-62.27,0-.8.01-1.6.02-2.4.58.19,1.16.37,1.74.56,2.45.07,4.89.14,7.34.21.42-.09.84-.18,1.26-.27,1.63.09,3.26.19,4.88.28.08.41.16.82.24,1.23.96.42,1.93.84,2.89,1.25.52.18,1.04.37,1.56.55,2.06,1.01,4.12,2.02,6.17,3.02.13.2.3.26.53.2.6.45,1.21.89,1.81,1.34l.05.05c.48.53.97,1.06,1.45,1.59-.04.24-.04.48.02.71,1.23,1.3,2.46,2.61,3.69,3.91.57.99,1.15,1.98,1.72,2.97.55.79,1.1,1.58,1.65,2.36,2.94,4.84,5.14,9.95,4.41,15.73-.54,4.3-1.58,8.54-2.39,12.8-.24.96-.47,1.92-.71,2.88-.3.56-.6,1.12-.91,1.69-.68,1.36-1.35,2.71-2.03,4.07-.56,1.23-1.11,2.46-1.67,3.69-.48.78-.96,1.56-1.43,2.34-.55.72-1.1,1.45-1.65,2.17-.71.82-1.42,1.64-2.12,2.46-2.84,1.86-5.69,3.72-8.53,5.58Z"/>
      <path class="cls-1" d="m793.14,95.32c.12.19.26.39.4.58-.14-.19-.29-.39-.4-.58h0Z"/>
      <path class="cls-1" d="m760.13,164.81c-.97-5.54-1.94-11.09-2.92-16.63-.54-3.46-1.03-6.94-1.67-10.38-.07-.38-1-.61-1.53-.91,0-.55,0-1.1,0-1.64-.25-1.59-.49-3.18-.74-4.77-.52-3.78-.9-7.59-1.61-11.33-1.52-8.02-3.21-16.01-4.83-24.02-.6-4.44-1.14-8.88-1.81-13.3-.44-2.88-.92-5.77-1.66-8.59-.3-1.15-1.32-2.11-2.01-3.15-.7-5.19-1.4-10.39-2.1-15.58-.34-.69-.68-1.39-1.02-2.08-6.5.03-13,.05-19.5.08-.55.22-1.1.43-1.64.65-.19.33-.38.67-.57,1h0c-.39,1.54-.95,3.06-1.15,4.62-.8,6.18-1.5,12.37-2.24,18.55.61-.56,1.56-1.05,1.73-1.72,1.68-6.59,3.22-13.22,4.8-19.84,0-.54-.01-1.08-.02-1.62.79.06,1.59.12,2.38.17.48,0,.97,0,1.45,0,3.05-.06,6.1-.22,9.14-.13.86.03,1.7.81,2.55,1.25,1.5,4.21,3.08,8.38,4.44,12.63.44,1.38.28,2.95.39,4.44,1.74,8.6,3.48,17.2,5.21,25.8,1.27,7.85,2.55,15.7,3.79,23.55.43,2.72.96,5.45.96,8.18,0,.92-1.52,1.83-2.35,2.75-8.03.21-16.05.42-24.08.63-2.04.35-4.07.81-6.12,1.02-1.95.2-3.94.14-5.91.19-2.33-.38-4.67-.72-6.98-1.2-.22-.05-.28-.9-.41-1.38-.03-1.08-.05-2.17-.08-3.25.42-1.63.84-3.25,1.25-4.88.11-1.02.21-2.05.32-3.07,1.98-9.95,4.07-19.88,5.89-29.86.81-4.45,1.07-8.99,1.57-13.5-.83.91-2.07,1.71-2.35,2.77-1.13,4.16-1.99,8.39-2.85,12.61-1.48,7.17-2.88,14.35-4.32,21.52-.06,1.2.04,2.43-.21,3.59-2.79,13.09-5.68,26.16-8.45,39.25-1.09,5.16-1.95,10.37-2.92,15.56.47.24.93.48,1.4.73.95-.92,2.55-1.72,2.75-2.79,1.82-9.37,3.4-18.78,5.05-28.18.43-1.44.85-2.88,1.28-4.32,1.45-.44,2.87-1.13,4.34-1.27,3.16-.3,6.35-.32,9.52-.46,11.52.01,23.04.03,34.56.04.82.34,1.64.69,2.46,1.03.01,3.09-.21,6.2.12,9.26.21,1.95,1.23,3.82,1.88,5.72-.05,2.1-.41,4.26-.07,6.3.78,4.75,1.89,9.45,2.87,14.17.3.51.6,1.02.9,1.53.18.12.36.26.53.41.64-.05,1.29-.11,1.93-.16-.31-2.73-.61-5.47-.92-8.2-.15-.6-.3-1.2-.45-1.8Z"/>
      <path class="cls-1" d="m719.13,122.97c-.12-.18-.24-.37-.36-.59h0c.12.21.24.41.36.59Z"/>
    </g>
  </g>
</svg>